<?xml version="1.0" standalone="no"?><!DOCTYPE svg PUBLIC "-//W3C//DTD SVG 1.1//EN" "http://www.w3.org/Graphics/SVG/1.1/DTD/svg11.dtd"><svg xmlns:xlink="http://www.w3.org/1999/xlink" version="1.1" class="highcharts-root" style="font-family:&quot;lucida grande&quot;, &quot;lucida sans unicode&quot;, arial, helvetica, sans-serif;font-size:12px;" xmlns="http://www.w3.org/2000/svg" width="600" height="400" viewBox="0 0 600 400"><desc>Created with Highcharts 5.0.10</desc><defs><clipPath id="highcharts-lvmh1iy-7"><rect x="0" y="0" width="416" height="269" fill="none"></rect></clipPath></defs><rect fill="#ffffff" class="highcharts-background" x="0" y="0" width="600" height="400" rx="0" ry="0"></rect><rect fill="none" class="highcharts-plot-background" x="63" y="62" width="416" height="269"></rect><g class="highcharts-pane-group"></g><g class="highcharts-grid highcharts-xaxis-grid "><path fill="none" class="highcharts-grid-line" d="M 166.5 62 L 166.5 331" opacity="1"></path><path fill="none" class="highcharts-grid-line" d="M 270.5 62 L 270.5 331" opacity="1"></path><path fill="none" class="highcharts-grid-line" d="M 374.5 62 L 374.5 331" opacity="1"></path><path fill="none" class="highcharts-grid-line" d="M 478.5 62 L 478.5 331" opacity="1"></path><path fill="none" class="highcharts-grid-line" d="M 62.5 62 L 62.5 331" opacity="1"></path></g><g class="highcharts-grid highcharts-yaxis-grid "><path fill="none" stroke="#e6e6e6" stroke-width="1" class="highcharts-grid-line" d="M 63 331.5 L 479 331.5" opacity="1"></path><path fill="none" stroke="#e6e6e6" stroke-width="1" class="highcharts-grid-line" d="M 63 277.5 L 479 277.5" opacity="1"></path><path fill="none" stroke="#e6e6e6" stroke-width="1" class="highcharts-grid-line" d="M 63 223.5 L 479 223.5" opacity="1"></path><path fill="none" stroke="#e6e6e6" stroke-width="1" class="highcharts-grid-line" d="M 63 170.5 L 479 170.5" opacity="1"></path><path fill="none" stroke="#e6e6e6" stroke-width="1" class="highcharts-grid-line" d="M 63 116.5 L 479 116.5" opacity="1"></path><path fill="none" stroke="#e6e6e6" stroke-width="1" class="highcharts-grid-line" d="M 63 61.5 L 479 61.5" opacity="1"></path></g><rect fill="none" class="highcharts-plot-border" x="63" y="62" width="416" height="269"></rect><g class="highcharts-axis highcharts-xaxis "><path fill="none" class="highcharts-tick" stroke="#ccd6eb" stroke-width="1" d="M 166.5 331 L 166.5 341" opacity="1"></path><path fill="none" class="highcharts-tick" stroke="#ccd6eb" stroke-width="1" d="M 270.5 331 L 270.5 341" opacity="1"></path><path fill="none" class="highcharts-tick" stroke="#ccd6eb" stroke-width="1" d="M 374.5 331 L 374.5 341" opacity="1"></path><path fill="none" class="highcharts-tick" stroke="#ccd6eb" stroke-width="1" d="M 479.5 331 L 479.5 341" opacity="1"></path><path fill="none" class="highcharts-tick" stroke="#ccd6eb" stroke-width="1" d="M 62.5 331 L 62.5 341" opacity="1"></path><text x="271" text-anchor="middle" transform="translate(0,0)" class="highcharts-axis-title" style="color:#666666;fill:#666666;" y="382.5938440986878">Year</text><path fill="none" class="highcharts-axis-line" stroke="#ccd6eb" stroke-width="1" d="M 63 331.5 L 479 331.5"></path></g><g class="highcharts-axis highcharts-yaxis "><text x="24.078125" text-anchor="middle" transform="translate(0,0) rotate(270 24.078125 196.5)" class="highcharts-axis-title" style="color:#666666;fill:#666666;" y="196.5"><tspan>Percentage of Pitches</tspan></text><path fill="none" class="highcharts-axis-line" d="M 63 62 L 63 331"></path></g><g class="highcharts-series-group"><g class="highcharts-series highcharts-series-0 highcharts-line-series highcharts-color-undefined " transform="translate(63,62) scale(1 1)" clip-path="url(#highcharts-lvmh1iy-7)"><path fill="none" d="M 52 28.94382112357755 L 156 25.662086758264877 L 260 42.55494890102199 L 364 72.68234635307294" class="highcharts-graph" stroke="#000000" stroke-width="2" stroke-linejoin="round" stroke-linecap="round"></path></g><g class="highcharts-markers highcharts-series-0 highcharts-line-series highcharts-color-undefined " transform="translate(63,62) scale(1 1)" clip-path="none"><path fill="#000000" d="M 55 29 A 3 3 0 1 1 54.999998500000125 28.997000000499998 Z" class="highcharts-point"></path><path fill="#000000" d="M 159 26 A 3 3 0 1 1 158.99999850000012 25.997000000499998 Z" class="highcharts-point"></path><path fill="#000000" d="M 263 43 A 3 3 0 1 1 262.9999985000001 42.9970000005 Z" class="highcharts-point"></path><path fill="#000000" d="M 367 73 A 3 3 0 1 1 366.9999985000001 72.9970000005 Z" class="highcharts-point"></path></g><g class="highcharts-series highcharts-series-1 highcharts-line-series highcharts-color-undefined " transform="translate(63,62) scale(1 1)" clip-path="url(#highcharts-lvmh1iy-7)"><path fill="none" d="M 52 178.02063958720825 L 156 183.6157276854463 L 260 174.68510629787403 L 364 146.44067118657625" class="highcharts-graph" stroke="#4F4F4F" stroke-width="2" stroke-linejoin="round" stroke-linecap="round"></path></g><g class="highcharts-markers highcharts-series-1 highcharts-line-series highcharts-color-undefined " transform="translate(63,62) scale(1 1)" clip-path="none"><path fill="#4F4F4F" d="M 52 175 L 55 178 52 181 49 178 Z" class="highcharts-point"></path><path fill="#4F4F4F" d="M 156 181 L 159 184 156 187 153 184 Z" class="highcharts-point"></path><path fill="#4F4F4F" d="M 260 172 L 263 175 260 178 257 175 Z" class="highcharts-point"></path><path fill="#4F4F4F" d="M 364 143 L 367 146 364 149 361 146 Z" class="highcharts-point"></path></g><g class="highcharts-series highcharts-series-2 highcharts-line-series highcharts-color-undefined " transform="translate(63,62) scale(1 1)" clip-path="url(#highcharts-lvmh1iy-7)"><path fill="none" d="M 52 215.73368532629348 L 156 211.86016279674408 L 260 210.83798324033518 L 364 227.78464430711387" class="highcharts-graph" stroke="#FFA500" stroke-width="2" stroke-linejoin="round" stroke-linecap="round"></path></g><g class="highcharts-markers highcharts-series-2 highcharts-line-series highcharts-color-undefined " transform="translate(63,62) scale(1 1)" clip-path="none"><path fill="#FFA500" d="M 49 213 L 55 213 55 219 49 219 Z" class="highcharts-point"></path><path fill="#FFA500" d="M 153 209 L 159 209 159 215 153 215 Z" class="highcharts-point"></path><path fill="#FFA500" d="M 257 208 L 263 208 263 214 257 214 Z" class="highcharts-point"></path><path fill="#FFA500" d="M 361 225 L 367 225 367 231 361 231 Z" class="highcharts-point"></path></g><g class="highcharts-series highcharts-series-3 highcharts-line-series highcharts-color-undefined " transform="translate(63,62) scale(1 1)" clip-path="url(#highcharts-lvmh1iy-7)"><path fill="none" d="M 52 179.4732105357893 L 156 185.66008679826405 L 260 169.62800743985122 L 364 143.15893682126358" class="highcharts-graph" stroke="#FF0000" stroke-width="2" stroke-linejoin="round" stroke-linecap="round"></path></g><g class="highcharts-markers highcharts-series-3 highcharts-line-series highcharts-color-undefined " transform="translate(63,62) scale(1 1)" clip-path="none"><path fill="#FF0000" d="M 52 176 L 55 182 49 182 Z" class="highcharts-point"></path><path fill="#FF0000" d="M 156 183 L 159 189 153 189 Z" class="highcharts-point"></path><path fill="#FF0000" d="M 260 167 L 263 173 257 173 Z" class="highcharts-point"></path><path fill="#FF0000" d="M 364 140 L 367 146 361 146 Z" class="highcharts-point"></path></g><g class="highcharts-series highcharts-series-4 highcharts-line-series highcharts-color-undefined " transform="translate(63,62) scale(1 1)" clip-path="url(#highcharts-lvmh1iy-7)"><path fill="none" d="M 52 204.8663026739465 L 156 200.23959520809586 L 260 209.2240155196896 L 364 216.91726165476692" class="highcharts-graph" stroke="#0c0cff" stroke-width="2" stroke-linejoin="round" stroke-linecap="round"></path></g><g class="highcharts-markers highcharts-series-4 highcharts-line-series highcharts-color-undefined " transform="translate(63,62) scale(1 1)" clip-path="none"><path fill="#0c0cff" d="M 49 202 L 55 202 52 208 Z" class="highcharts-point"></path><path fill="#0c0cff" d="M 153 197 L 159 197 156 203 Z" class="highcharts-point"></path><path fill="#0c0cff" d="M 257 206 L 263 206 260 212 Z" class="highcharts-point"></path><path fill="#0c0cff" d="M 361 214 L 367 214 364 220 Z" class="highcharts-point"></path></g></g><text x="300" text-anchor="middle" class="highcharts-title" style="color:#333333;font-size:18px;fill:#333333;" y="24"><tspan style="font-weight:bold">Jacob deGrom (New York Mets)</tspan></text><text x="300" text-anchor="middle" class="highcharts-subtitle" style="color:#666666;fill:#666666;" y="46"><tspan>Sorted by Pitch Type | From 03/30/2007 to 05/01/2017 | All Competition Levels</tspan></text><g class="highcharts-legend" transform="translate(491,110)"><rect fill="none" class="highcharts-legend-box" rx="0" ry="0" x="0" y="0" width="99" height="81" visibility="visible"></rect><g><g><g class="highcharts-legend-item highcharts-line-series highcharts-color-undefined highcharts-series-0" transform="translate(8,3)"><path fill="none" d="M 0 11 L 16 11" class="highcharts-graph" stroke="#000000" stroke-width="2"></path><path fill="#000000" d="M 11 11 A 3 3 0 1 1 10.999998500000125 10.997000000499998 Z" class="highcharts-point"></path><text x="21" style="color:#333333;font-size:12px;font-weight:bold;cursor:pointer;fill:#333333;" text-anchor="start" y="15">Fourseam</text></g><g class="highcharts-legend-item highcharts-line-series highcharts-color-undefined highcharts-series-1" transform="translate(8,17)"><path fill="none" d="M 0 11 L 16 11" class="highcharts-graph" stroke="#4F4F4F" stroke-width="2"></path><path fill="#4F4F4F" d="M 8 8 L 11 11 8 14 5 11 Z" class="highcharts-point"></path><text x="21" y="15" style="color:#333333;font-size:12px;font-weight:bold;cursor:pointer;fill:#333333;" text-anchor="start">Sinker</text></g><g class="highcharts-legend-item highcharts-line-series highcharts-color-undefined highcharts-series-2" transform="translate(8,31)"><path fill="none" d="M 0 11 L 16 11" class="highcharts-graph" stroke="#FFA500" stroke-width="2"></path><path fill="#FFA500" d="M 5 8 L 11 8 11 14 5 14 Z" class="highcharts-point"></path><text x="21" y="15" style="color:#333333;font-size:12px;font-weight:bold;cursor:pointer;fill:#333333;" text-anchor="start">Curveball</text></g><g class="highcharts-legend-item highcharts-line-series highcharts-color-undefined highcharts-series-3" transform="translate(8,45)"><path fill="none" d="M 0 11 L 16 11" class="highcharts-graph" stroke="#FF0000" stroke-width="2"></path><path fill="#FF0000" d="M 8 8 L 11 14 5 14 Z" class="highcharts-point"></path><text x="21" y="15" style="color:#333333;font-size:12px;font-weight:bold;cursor:pointer;fill:#333333;" text-anchor="start">Slider</text></g><g class="highcharts-legend-item highcharts-line-series highcharts-color-undefined highcharts-series-4" transform="translate(8,59)"><path fill="none" d="M 0 11 L 16 11" class="highcharts-graph" stroke="#0c0cff" stroke-width="2"></path><path fill="#0c0cff" d="M 5 8 L 11 8 8 14 Z" class="highcharts-point"></path><text x="21" y="15" style="color:#333333;font-size:12px;font-weight:bold;cursor:pointer;fill:#333333;" text-anchor="start">Changeup</text></g></g></g></g><g class="highcharts-axis-labels highcharts-xaxis-labels "><text x="117.35702260395516" style="color:#666666;cursor:default;font-size:10px;font-family:verdana, sans-serif;fill:#666666;" text-anchor="end" transform="translate(0,0) rotate(-45 117.35702260395516 346)" y="346" opacity="1"><tspan>2014</tspan></text><text x="221.35702260395516" style="color:#666666;cursor:default;font-size:10px;font-family:verdana, sans-serif;fill:#666666;" text-anchor="end" transform="translate(0,0) rotate(-45 221.35702260395516 346)" y="346" opacity="1"><tspan>2015</tspan></text><text x="325.35702260395516" style="color:#666666;cursor:default;font-size:10px;font-family:verdana, sans-serif;fill:#666666;" text-anchor="end" transform="translate(0,0) rotate(-45 325.35702260395516 346)" y="346" opacity="1"><tspan>2016</tspan></text><text x="429.35702260395516" style="color:#666666;cursor:default;font-size:10px;font-family:verdana, sans-serif;fill:#666666;" text-anchor="end" transform="translate(0,0) rotate(-45 429.35702260395516 346)" y="346" opacity="1"><tspan>2017</tspan></text></g><g class="highcharts-axis-labels highcharts-yaxis-labels "><text x="48" style="color:#666666;cursor:default;font-size:11px;fill:#666666;" text-anchor="end" transform="translate(0,0)" y="336" opacity="1"><tspan>0</tspan></text><text x="48" style="color:#666666;cursor:default;font-size:11px;fill:#666666;" text-anchor="end" transform="translate(0,0)" y="282" opacity="1"><tspan>10</tspan></text><text x="48" style="color:#666666;cursor:default;font-size:11px;fill:#666666;" text-anchor="end" transform="translate(0,0)" y="228" opacity="1"><tspan>20</tspan></text><text x="48" style="color:#666666;cursor:default;font-size:11px;fill:#666666;" text-anchor="end" transform="translate(0,0)" y="174" opacity="1"><tspan>30</tspan></text><text x="48" style="color:#666666;cursor:default;font-size:11px;fill:#666666;" text-anchor="end" transform="translate(0,0)" y="120" opacity="1"><tspan>40</tspan></text><text x="48" style="color:#666666;cursor:default;font-size:11px;fill:#666666;" text-anchor="end" transform="translate(0,0)" y="67" opacity="1"><tspan>50</tspan></text></g><text x="590" class="highcharts-credits" text-anchor="end" style="cursor:pointer;color:#999999;font-size:9px;fill:#999999;" y="395"><tspan>BrooksBaseball.net | Powered by Pitch Info</tspan></text></svg>