<?xml version="1.0" standalone="no"?><!DOCTYPE svg PUBLIC "-//W3C//DTD SVG 1.1//EN" "http://www.w3.org/Graphics/SVG/1.1/DTD/svg11.dtd"><svg xmlns:xlink="http://www.w3.org/1999/xlink" version="1.1" class="highcharts-root" style="font-family:&quot;lucida grande&quot;, &quot;lucida sans unicode&quot;, arial, helvetica, sans-serif;font-size:12px;" xmlns="http://www.w3.org/2000/svg" width="600" height="400" viewBox="0 0 600 400"><desc>Created with Highcharts 5.0.10</desc><defs><clipPath id="highcharts-biw1o3s-7"><rect x="0" y="0" width="409" height="269" fill="none"></rect></clipPath></defs><rect fill="#ffffff" class="highcharts-background" x="0" y="0" width="600" height="400" rx="0" ry="0"></rect><rect fill="none" class="highcharts-plot-background" x="70" y="62" width="409" height="269"></rect><g class="highcharts-pane-group"></g><g class="highcharts-grid highcharts-xaxis-grid "><path fill="none" class="highcharts-grid-line" d="M 137.5 62 L 137.5 331" opacity="1"></path><path fill="none" class="highcharts-grid-line" d="M 205.5 62 L 205.5 331" opacity="1"></path><path fill="none" class="highcharts-grid-line" d="M 274.5 62 L 274.5 331" opacity="1"></path><path fill="none" class="highcharts-grid-line" d="M 342.5 62 L 342.5 331" opacity="1"></path><path fill="none" class="highcharts-grid-line" d="M 410.5 62 L 410.5 331" opacity="1"></path><path fill="none" class="highcharts-grid-line" d="M 478.5 62 L 478.5 331" opacity="1"></path><path fill="none" class="highcharts-grid-line" d="M 69.5 62 L 69.5 331" opacity="1"></path></g><g class="highcharts-grid highcharts-yaxis-grid "><path fill="none" stroke="#e6e6e6" stroke-width="1" class="highcharts-grid-line" d="M 70 331.5 L 479 331.5" opacity="1"></path><path fill="none" stroke="#e6e6e6" stroke-width="1" class="highcharts-grid-line" d="M 70 277.5 L 479 277.5" opacity="1"></path><path fill="none" stroke="#e6e6e6" stroke-width="1" class="highcharts-grid-line" d="M 70 223.5 L 479 223.5" opacity="1"></path><path fill="none" stroke="#e6e6e6" stroke-width="1" class="highcharts-grid-line" d="M 70 170.5 L 479 170.5" opacity="1"></path><path fill="none" stroke="#e6e6e6" stroke-width="1" class="highcharts-grid-line" d="M 70 116.5 L 479 116.5" opacity="1"></path><path fill="none" stroke="#e6e6e6" stroke-width="1" class="highcharts-grid-line" d="M 70 61.5 L 479 61.5" opacity="1"></path></g><rect fill="none" class="highcharts-plot-border" x="70" y="62" width="409" height="269"></rect><g class="highcharts-axis highcharts-xaxis "><path fill="none" class="highcharts-tick" stroke="#ccd6eb" stroke-width="1" d="M 137.5 331 L 137.5 341" opacity="1"></path><path fill="none" class="highcharts-tick" stroke="#ccd6eb" stroke-width="1" d="M 205.5 331 L 205.5 341" opacity="1"></path><path fill="none" class="highcharts-tick" stroke="#ccd6eb" stroke-width="1" d="M 274.5 331 L 274.5 341" opacity="1"></path><path fill="none" class="highcharts-tick" stroke="#ccd6eb" stroke-width="1" d="M 342.5 331 L 342.5 341" opacity="1"></path><path fill="none" class="highcharts-tick" stroke="#ccd6eb" stroke-width="1" d="M 410.5 331 L 410.5 341" opacity="1"></path><path fill="none" class="highcharts-tick" stroke="#ccd6eb" stroke-width="1" d="M 479.5 331 L 479.5 341" opacity="1"></path><path fill="none" class="highcharts-tick" stroke="#ccd6eb" stroke-width="1" d="M 69.5 331 L 69.5 341" opacity="1"></path><text x="274.5" text-anchor="middle" transform="translate(0,0)" class="highcharts-axis-title" style="color:#666666;fill:#666666;" y="382.5938440986878">Year</text><path fill="none" class="highcharts-axis-line" stroke="#ccd6eb" stroke-width="1" d="M 70 331.5 L 479 331.5"></path></g><g class="highcharts-axis highcharts-yaxis "><text x="24.125" text-anchor="middle" transform="translate(0,0) rotate(270 24.125 196.5)" class="highcharts-axis-title" style="color:#666666;fill:#666666;" y="196.5"><tspan>Percentage of Pitches</tspan></text><path fill="none" class="highcharts-axis-line" d="M 70 62 L 70 331"></path></g><g class="highcharts-series-group"><g class="highcharts-series highcharts-series-0 highcharts-line-series highcharts-color-undefined " transform="translate(70,62) scale(1 1)" clip-path="url(#highcharts-biw1o3s-7)"><path fill="none" d="M 34.083333333333 53.79956960344316 L 102.25 137.85601715186277 L 170.41666666667 147.109543123655 L 238.58333333333 139.70672234622123 L 306.75 144.0967672258622 L 374.91666666667 140.45991632066944" class="highcharts-graph" stroke="#000000" stroke-width="2" stroke-linejoin="round" stroke-linecap="round"></path></g><g class="highcharts-markers highcharts-series-0 highcharts-line-series highcharts-color-undefined " transform="translate(70,62) scale(1 1)" clip-path="none"><path fill="#000000" d="M 37 54 A 3 3 0 1 1 36.999998500000125 53.9970000005 Z" class="highcharts-point"></path><path fill="#000000" d="M 105 138 A 3 3 0 1 1 104.99999850000013 137.9970000005 Z" class="highcharts-point"></path><path fill="#000000" d="M 173 147 A 3 3 0 1 1 172.99999850000012 146.9970000005 Z" class="highcharts-point"></path><path fill="#000000" d="M 241 140 A 3 3 0 1 1 240.99999850000012 139.9970000005 Z" class="highcharts-point"></path><path fill="#000000" d="M 309 144 A 3 3 0 1 1 308.9999985000001 143.9970000005 Z" class="highcharts-point"></path><path fill="#000000" d="M 377 140 A 3 3 0 1 1 376.9999985000001 139.9970000005 Z" class="highcharts-point"></path></g><g class="highcharts-series highcharts-series-1 highcharts-line-series highcharts-color-undefined " transform="translate(70,62) scale(1 1)" clip-path="url(#highcharts-biw1o3s-7)"><path fill="none" d="M 34.083333333333 268.99784801721586 L 102.25 259.09872721018235 L 170.41666666667 268.99784801721586 L 238.58333333333 268.99784801721586 L 306.75 264.97364021087833 L 374.91666666667 268.52441180470555" class="highcharts-graph" stroke="#4F4F4F" stroke-width="2" stroke-linejoin="round" stroke-linecap="round"></path></g><g class="highcharts-markers highcharts-series-1 highcharts-line-series highcharts-color-undefined " transform="translate(70,62) scale(1 1)" clip-path="none"><path fill="#4F4F4F" d="M 34 266 L 37 269 34 272 31 269 Z" class="highcharts-point"></path><path fill="#4F4F4F" d="M 102 256 L 105 259 102 262 99 259 Z" class="highcharts-point"></path><path fill="#4F4F4F" d="M 170 266 L 173 269 170 272 167 269 Z" class="highcharts-point"></path><path fill="#4F4F4F" d="M 238 266 L 241 269 238 272 235 269 Z" class="highcharts-point"></path><path fill="#4F4F4F" d="M 306 262 L 309 265 306 268 303 265 Z" class="highcharts-point"></path><path fill="#4F4F4F" d="M 374 266 L 377 269 374 272 371 269 Z" class="highcharts-point"></path></g><g class="highcharts-series highcharts-series-2 highcharts-line-series highcharts-color-undefined " transform="translate(70,62) scale(1 1)" clip-path="url(#highcharts-biw1o3s-7)"><path fill="none" d="M 34.083333333333 268.99784801721586 L 102.25 249.19960640314878 L 170.41666666667 240.01063991488067 L 238.58333333333 241.06511147910817 L 306.75 247.1767425860593 L 374.91666666667 255.999872001024" class="highcharts-graph" stroke="#FFA500" stroke-width="2" stroke-linejoin="round" stroke-linecap="round"></path></g><g class="highcharts-markers highcharts-series-2 highcharts-line-series highcharts-color-undefined " transform="translate(70,62) scale(1 1)" clip-path="none"><path fill="#FFA500" d="M 31 266 L 37 266 37 272 31 272 Z" class="highcharts-point"></path><path fill="#FFA500" d="M 99 246 L 105 246 105 252 99 252 Z" class="highcharts-point"></path><path fill="#FFA500" d="M 167 237 L 173 237 173 243 167 243 Z" class="highcharts-point"></path><path fill="#FFA500" d="M 235 238 L 241 238 241 244 235 244 Z" class="highcharts-point"></path><path fill="#FFA500" d="M 303 244 L 309 244 309 250 303 250 Z" class="highcharts-point"></path><path fill="#FFA500" d="M 371 253 L 377 253 377 259 371 259 Z" class="highcharts-point"></path></g><g class="highcharts-series highcharts-series-3 highcharts-line-series highcharts-color-undefined " transform="translate(70,62) scale(1 1)" clip-path="url(#highcharts-biw1o3s-7)"><path fill="none" d="M 34.083333333333 268.99784801721586 L 102.25 239.73088215294277 L 170.41666666667 229.1861665106679 L 238.58333333333 237.94473644210848 L 306.75 228.51905184758522 L 374.91666666667 224.71004231966145" class="highcharts-graph" stroke="#FF0000" stroke-width="2" stroke-linejoin="round" stroke-linecap="round"></path></g><g class="highcharts-markers highcharts-series-3 highcharts-line-series highcharts-color-undefined " transform="translate(70,62) scale(1 1)" clip-path="none"><path fill="#FF0000" d="M 34 266 L 37 272 31 272 Z" class="highcharts-point"></path><path fill="#FF0000" d="M 102 237 L 105 243 99 243 Z" class="highcharts-point"></path><path fill="#FF0000" d="M 170 226 L 173 232 167 232 Z" class="highcharts-point"></path><path fill="#FF0000" d="M 238 235 L 241 241 235 241 Z" class="highcharts-point"></path><path fill="#FF0000" d="M 306 226 L 309 232 303 232 Z" class="highcharts-point"></path><path fill="#FF0000" d="M 374 222 L 377 228 371 228 Z" class="highcharts-point"></path></g><g class="highcharts-series highcharts-series-4 highcharts-line-series highcharts-color-undefined " transform="translate(70,62) scale(1 1)" clip-path="url(#highcharts-biw1o3s-7)"><path fill="none" d="M 34.083333333333 268.99784801721586 L 102.25 243.90572875416996 L 170.41666666667 244.50828393372853 L 238.58333333333 242.0765433876529 L 306.75 245.17539859681122 L 374.91666666667 240.59167526659786" class="highcharts-graph" stroke="#0c0cff" stroke-width="2" stroke-linejoin="round" stroke-linecap="round"></path></g><g class="highcharts-markers highcharts-series-4 highcharts-line-series highcharts-color-undefined " transform="translate(70,62) scale(1 1)" clip-path="none"><path fill="#0c0cff" d="M 31 266 L 37 266 34 272 Z" class="highcharts-point"></path><path fill="#0c0cff" d="M 99 241 L 105 241 102 247 Z" class="highcharts-point"></path><path fill="#0c0cff" d="M 167 242 L 173 242 170 248 Z" class="highcharts-point"></path><path fill="#0c0cff" d="M 235 239 L 241 239 238 245 Z" class="highcharts-point"></path><path fill="#0c0cff" d="M 303 242 L 309 242 306 248 Z" class="highcharts-point"></path><path fill="#0c0cff" d="M 371 238 L 377 238 374 244 Z" class="highcharts-point"></path></g></g><text x="300" text-anchor="middle" class="highcharts-title" style="color:#333333;font-size:18px;fill:#333333;" y="24"><tspan style="font-weight:bold">Matt Harvey (New York Mets)</tspan></text><text x="300" text-anchor="middle" class="highcharts-subtitle" style="color:#666666;fill:#666666;" y="46"><tspan>Sorted by Pitch Type | From 03/30/2007 to 05/01/2017 | All Competition Levels</tspan></text><g class="highcharts-legend" transform="translate(491,110)"><rect fill="none" class="highcharts-legend-box" rx="0" ry="0" x="0" y="0" width="99" height="81" visibility="visible"></rect><g><g><g class="highcharts-legend-item highcharts-line-series highcharts-color-undefined highcharts-series-0" transform="translate(8,3)"><path fill="none" d="M 0 11 L 16 11" class="highcharts-graph" stroke="#000000" stroke-width="2"></path><path fill="#000000" d="M 11 11 A 3 3 0 1 1 10.999998500000125 10.997000000499998 Z" class="highcharts-point"></path><text x="21" style="color:#333333;font-size:12px;font-weight:bold;cursor:pointer;fill:#333333;" text-anchor="start" y="15">Fourseam</text></g><g class="highcharts-legend-item highcharts-line-series highcharts-color-undefined highcharts-series-1" transform="translate(8,17)"><path fill="none" d="M 0 11 L 16 11" class="highcharts-graph" stroke="#4F4F4F" stroke-width="2"></path><path fill="#4F4F4F" d="M 8 8 L 11 11 8 14 5 11 Z" class="highcharts-point"></path><text x="21" y="15" style="color:#333333;font-size:12px;font-weight:bold;cursor:pointer;fill:#333333;" text-anchor="start">Sinker</text></g><g class="highcharts-legend-item highcharts-line-series highcharts-color-undefined highcharts-series-2" transform="translate(8,31)"><path fill="none" d="M 0 11 L 16 11" class="highcharts-graph" stroke="#FFA500" stroke-width="2"></path><path fill="#FFA500" d="M 5 8 L 11 8 11 14 5 14 Z" class="highcharts-point"></path><text x="21" y="15" style="color:#333333;font-size:12px;font-weight:bold;cursor:pointer;fill:#333333;" text-anchor="start">Curveball</text></g><g class="highcharts-legend-item highcharts-line-series highcharts-color-undefined highcharts-series-3" transform="translate(8,45)"><path fill="none" d="M 0 11 L 16 11" class="highcharts-graph" stroke="#FF0000" stroke-width="2"></path><path fill="#FF0000" d="M 8 8 L 11 14 5 14 Z" class="highcharts-point"></path><text x="21" y="15" style="color:#333333;font-size:12px;font-weight:bold;cursor:pointer;fill:#333333;" text-anchor="start">Slider</text></g><g class="highcharts-legend-item highcharts-line-series highcharts-color-undefined highcharts-series-4" transform="translate(8,59)"><path fill="none" d="M 0 11 L 16 11" class="highcharts-graph" stroke="#0c0cff" stroke-width="2"></path><path fill="#0c0cff" d="M 5 8 L 11 8 8 14 Z" class="highcharts-point"></path><text x="21" y="15" style="color:#333333;font-size:12px;font-weight:bold;cursor:pointer;fill:#333333;" text-anchor="start">Changeup</text></g></g></g></g><g class="highcharts-axis-labels highcharts-xaxis-labels "><text x="106.4403559372885" style="color:#666666;cursor:default;font-size:10px;font-family:verdana, sans-serif;fill:#666666;" text-anchor="end" transform="translate(0,0) rotate(-45 106.4403559372885 346)" y="346" opacity="1"><tspan>2011</tspan></text><text x="174.60702260395516" style="color:#666666;cursor:default;font-size:10px;font-family:verdana, sans-serif;fill:#666666;" text-anchor="end" transform="translate(0,0) rotate(-45 174.60702260395516 346)" y="346" opacity="1"><tspan>2012</tspan></text><text x="242.77368927062182" style="color:#666666;cursor:default;font-size:10px;font-family:verdana, sans-serif;fill:#666666;" text-anchor="end" transform="translate(0,0) rotate(-45 242.77368927062182 346)" y="346" opacity="1"><tspan>2013</tspan></text><text x="310.94035593728853" style="color:#666666;cursor:default;font-size:10px;font-family:verdana, sans-serif;fill:#666666;" text-anchor="end" transform="translate(0,0) rotate(-45 310.94035593728853 346)" y="346" opacity="1"><tspan>2015</tspan></text><text x="379.10702260395516" style="color:#666666;cursor:default;font-size:10px;font-family:verdana, sans-serif;fill:#666666;" text-anchor="end" transform="translate(0,0) rotate(-45 379.10702260395516 346)" y="346" opacity="1"><tspan>2016</tspan></text><text x="447.27368927062184" style="color:#666666;cursor:default;font-size:10px;font-family:verdana, sans-serif;fill:#666666;" text-anchor="end" transform="translate(0,0) rotate(-45 447.27368927062184 346)" y="346" opacity="1"><tspan>2017</tspan></text></g><g class="highcharts-axis-labels highcharts-yaxis-labels "><text x="55" style="color:#666666;cursor:default;font-size:11px;fill:#666666;" text-anchor="end" transform="translate(0,0)" y="336" opacity="1"><tspan>0</tspan></text><text x="55" style="color:#666666;cursor:default;font-size:11px;fill:#666666;" text-anchor="end" transform="translate(0,0)" y="282" opacity="1"><tspan>25</tspan></text><text x="55" style="color:#666666;cursor:default;font-size:11px;fill:#666666;" text-anchor="end" transform="translate(0,0)" y="228" opacity="1"><tspan>50</tspan></text><text x="55" style="color:#666666;cursor:default;font-size:11px;fill:#666666;" text-anchor="end" transform="translate(0,0)" y="174" opacity="1"><tspan>75</tspan></text><text x="55" style="color:#666666;cursor:default;font-size:11px;fill:#666666;" text-anchor="end" transform="translate(0,0)" y="120" opacity="1"><tspan>100</tspan></text><text x="55" style="color:#666666;cursor:default;font-size:11px;fill:#666666;" text-anchor="end" transform="translate(0,0)" y="67" opacity="1"><tspan>125</tspan></text></g><text x="590" class="highcharts-credits" text-anchor="end" style="cursor:pointer;color:#999999;font-size:9px;fill:#999999;" y="395"><tspan>BrooksBaseball.net | Powered by Pitch Info</tspan></text></svg>