<?xml version="1.0" standalone="no"?><!DOCTYPE svg PUBLIC "-//W3C//DTD SVG 1.1//EN" "http://www.w3.org/Graphics/SVG/1.1/DTD/svg11.dtd"><svg xmlns:xlink="http://www.w3.org/1999/xlink" version="1.1" class="highcharts-root" style="font-family:&quot;lucida grande&quot;, &quot;lucida sans unicode&quot;, arial, helvetica, sans-serif;font-size:12px;" xmlns="http://www.w3.org/2000/svg" width="600" height="400" viewBox="0 0 600 400"><desc>Created with Highcharts 5.0.10</desc><defs><clipPath id="highcharts-oeabho3-7"><rect x="0" y="0" width="416" height="269" fill="none"></rect></clipPath></defs><rect fill="#ffffff" class="highcharts-background" x="0" y="0" width="600" height="400" rx="0" ry="0"></rect><rect fill="none" class="highcharts-plot-background" x="63" y="62" width="416" height="269"></rect><g class="highcharts-pane-group"></g><g class="highcharts-grid highcharts-xaxis-grid "><path fill="none" class="highcharts-grid-line" d="M 145.5 62 L 145.5 331" opacity="1"></path><path fill="none" class="highcharts-grid-line" d="M 228.5 62 L 228.5 331" opacity="1"></path><path fill="none" class="highcharts-grid-line" d="M 312.5 62 L 312.5 331" opacity="1"></path><path fill="none" class="highcharts-grid-line" d="M 395.5 62 L 395.5 331" opacity="1"></path><path fill="none" class="highcharts-grid-line" d="M 478.5 62 L 478.5 331" opacity="1"></path><path fill="none" class="highcharts-grid-line" d="M 62.5 62 L 62.5 331" opacity="1"></path></g><g class="highcharts-grid highcharts-yaxis-grid "><path fill="none" stroke="#e6e6e6" stroke-width="1" class="highcharts-grid-line" d="M 63 331.5 L 479 331.5" opacity="1"></path><path fill="none" stroke="#e6e6e6" stroke-width="1" class="highcharts-grid-line" d="M 63 264.5 L 479 264.5" opacity="1"></path><path fill="none" stroke="#e6e6e6" stroke-width="1" class="highcharts-grid-line" d="M 63 196.5 L 479 196.5" opacity="1"></path><path fill="none" stroke="#e6e6e6" stroke-width="1" class="highcharts-grid-line" d="M 63 129.5 L 479 129.5" opacity="1"></path><path fill="none" stroke="#e6e6e6" stroke-width="1" class="highcharts-grid-line" d="M 63 61.5 L 479 61.5" opacity="1"></path></g><rect fill="none" class="highcharts-plot-border" x="63" y="62" width="416" height="269"></rect><g class="highcharts-axis highcharts-xaxis "><path fill="none" class="highcharts-tick" stroke="#ccd6eb" stroke-width="1" d="M 145.5 331 L 145.5 341" opacity="1"></path><path fill="none" class="highcharts-tick" stroke="#ccd6eb" stroke-width="1" d="M 228.5 331 L 228.5 341" opacity="1"></path><path fill="none" class="highcharts-tick" stroke="#ccd6eb" stroke-width="1" d="M 312.5 331 L 312.5 341" opacity="1"></path><path fill="none" class="highcharts-tick" stroke="#ccd6eb" stroke-width="1" d="M 395.5 331 L 395.5 341" opacity="1"></path><path fill="none" class="highcharts-tick" stroke="#ccd6eb" stroke-width="1" d="M 478.5 331 L 478.5 341" opacity="1"></path><path fill="none" class="highcharts-tick" stroke="#ccd6eb" stroke-width="1" d="M 62.5 331 L 62.5 341" opacity="1"></path><text x="271" text-anchor="middle" transform="translate(0,0)" class="highcharts-axis-title" style="color:#666666;fill:#666666;" y="382.5938440986878">Year</text><path fill="none" class="highcharts-axis-line" stroke="#ccd6eb" stroke-width="1" d="M 63 331.5 L 479 331.5"></path></g><g class="highcharts-axis highcharts-yaxis "><text x="24.078125" text-anchor="middle" transform="translate(0,0) rotate(270 24.078125 196.5)" class="highcharts-axis-title" style="color:#666666;fill:#666666;" y="196.5"><tspan>Percentage of Pitches</tspan></text><path fill="none" class="highcharts-axis-line" d="M 63 62 L 63 331"></path></g><g class="highcharts-series-group"><g class="highcharts-series highcharts-series-0 highcharts-line-series highcharts-color-undefined " transform="translate(63,62) scale(1 1)" clip-path="url(#highcharts-oeabho3-7)"><path fill="none" d="M 41.6 22.427594655066798 L 124.8 62.07097411282359 L 208 146.8049149385633 L 291.2 171.41810727365907 L 374.4 240.92011349858126" class="highcharts-graph" stroke="#000000" stroke-width="2" stroke-linejoin="round" stroke-linecap="round"></path></g><g class="highcharts-markers highcharts-series-0 highcharts-line-series highcharts-color-undefined " transform="translate(63,62) scale(1 1)" clip-path="none"><path fill="#000000" d="M 44 22 A 3 3 0 1 1 43.999998500000125 21.997000000499998 Z" class="highcharts-point"></path><path fill="#000000" d="M 127 62 A 3 3 0 1 1 126.99999850000013 61.9970000005 Z" class="highcharts-point"></path><path fill="#000000" d="M 211 147 A 3 3 0 1 1 210.99999850000012 146.9970000005 Z" class="highcharts-point"></path><path fill="#000000" d="M 294 171 A 3 3 0 1 1 293.9999985000001 170.9970000005 Z" class="highcharts-point"></path><path fill="#000000" d="M 377 241 A 3 3 0 1 1 376.9999985000001 240.9970000005 Z" class="highcharts-point"></path></g><g class="highcharts-series highcharts-series-1 highcharts-line-series highcharts-color-undefined " transform="translate(63,62) scale(1 1)" clip-path="url(#highcharts-oeabho3-7)"><path fill="none" d="M 41.6 268.9966375420307 L 124.8 268.9966375420307 L 208 185.47318158523018 L 291.2 167.1814102323721 L 374.4 128.54676816539794" class="highcharts-graph" stroke="#4F4F4F" stroke-width="2" stroke-linejoin="round" stroke-linecap="round"></path></g><g class="highcharts-markers highcharts-series-1 highcharts-line-series highcharts-color-undefined " transform="translate(63,62) scale(1 1)" clip-path="none"><path fill="#4F4F4F" d="M 41 266 L 44 269 41 272 38 269 Z" class="highcharts-point"></path><path fill="#4F4F4F" d="M 124 266 L 127 269 124 272 121 269 Z" class="highcharts-point"></path><path fill="#4F4F4F" d="M 208 182 L 211 185 208 188 205 185 Z" class="highcharts-point"></path><path fill="#4F4F4F" d="M 291 164 L 294 167 291 170 288 167 Z" class="highcharts-point"></path><path fill="#4F4F4F" d="M 374 126 L 377 129 374 132 371 129 Z" class="highcharts-point"></path></g><g class="highcharts-series highcharts-series-2 highcharts-line-series highcharts-color-undefined " transform="translate(63,62) scale(1 1)" clip-path="url(#highcharts-oeabho3-7)"><path fill="none" d="M 41.6 179.31988350145622 L 124.8 191.39110761115487 L 208 197.0400369995375 L 291.2 240.3148710641117 L 374.4 233.6908288646392" class="highcharts-graph" stroke="#FFA500" stroke-width="2" stroke-linejoin="round" stroke-linecap="round"></path></g><g class="highcharts-markers highcharts-series-2 highcharts-line-series highcharts-color-undefined " transform="translate(63,62) scale(1 1)" clip-path="none"><path fill="#FFA500" d="M 38 176 L 44 176 44 182 38 182 Z" class="highcharts-point"></path><path fill="#FFA500" d="M 121 188 L 127 188 127 194 121 194 Z" class="highcharts-point"></path><path fill="#FFA500" d="M 205 194 L 211 194 211 200 205 200 Z" class="highcharts-point"></path><path fill="#FFA500" d="M 288 237 L 294 237 294 243 288 243 Z" class="highcharts-point"></path><path fill="#FFA500" d="M 371 231 L 377 231 377 237 371 237 Z" class="highcharts-point"></path></g><g class="highcharts-series highcharts-series-3 highcharts-line-series highcharts-color-undefined " transform="translate(63,62) scale(1 1)" clip-path="url(#highcharts-oeabho3-7)"><path fill="none" d="M 41.6 268.9966375420307 L 124.8 268.9966375420307 L 208 258.304021199735 L 291.2 198.55314308571144 L 374.4 199.19201009987376" class="highcharts-graph" stroke="#FF0000" stroke-width="2" stroke-linejoin="round" stroke-linecap="round"></path></g><g class="highcharts-markers highcharts-series-3 highcharts-line-series highcharts-color-undefined " transform="translate(63,62) scale(1 1)" clip-path="none"><path fill="#FF0000" d="M 41 266 L 44 272 38 272 Z" class="highcharts-point"></path><path fill="#FF0000" d="M 124 266 L 127 272 121 272 Z" class="highcharts-point"></path><path fill="#FF0000" d="M 208 255 L 211 261 205 261 Z" class="highcharts-point"></path><path fill="#FF0000" d="M 291 196 L 294 202 288 202 Z" class="highcharts-point"></path><path fill="#FF0000" d="M 374 196 L 377 202 371 202 Z" class="highcharts-point"></path></g><g class="highcharts-series highcharts-series-4 highcharts-line-series highcharts-color-undefined " transform="translate(63,62) scale(1 1)" clip-path="url(#highcharts-oeabho3-7)"><path fill="none" d="M 41.6 268.9966375420307 L 124.8 217.2820339745753 L 208 221.148860639242 L 291.2 231.60610492368846 L 374.4 206.38767015412307" class="highcharts-graph" stroke="#0c0cff" stroke-width="2" stroke-linejoin="round" stroke-linecap="round"></path></g><g class="highcharts-markers highcharts-series-4 highcharts-line-series highcharts-color-undefined " transform="translate(63,62) scale(1 1)" clip-path="none"><path fill="#0c0cff" d="M 38 266 L 44 266 41 272 Z" class="highcharts-point"></path><path fill="#0c0cff" d="M 121 214 L 127 214 124 220 Z" class="highcharts-point"></path><path fill="#0c0cff" d="M 205 218 L 211 218 208 224 Z" class="highcharts-point"></path><path fill="#0c0cff" d="M 288 229 L 294 229 291 235 Z" class="highcharts-point"></path><path fill="#0c0cff" d="M 371 203 L 377 203 374 209 Z" class="highcharts-point"></path></g></g><text x="300" text-anchor="middle" class="highcharts-title" style="color:#333333;font-size:18px;fill:#333333;" y="24"><tspan style="font-weight:bold">Noah Syndergaard (New York Mets)</tspan></text><text x="300" text-anchor="middle" class="highcharts-subtitle" style="color:#666666;fill:#666666;" y="46"><tspan>Sorted by Pitch Type | From 03/30/2007 to 05/01/2017 | All Competition Levels</tspan></text><g class="highcharts-legend" transform="translate(491,110)"><rect fill="none" class="highcharts-legend-box" rx="0" ry="0" x="0" y="0" width="99" height="81" visibility="visible"></rect><g><g><g class="highcharts-legend-item highcharts-line-series highcharts-color-undefined highcharts-series-0" transform="translate(8,3)"><path fill="none" d="M 0 11 L 16 11" class="highcharts-graph" stroke="#000000" stroke-width="2"></path><path fill="#000000" d="M 11 11 A 3 3 0 1 1 10.999998500000125 10.997000000499998 Z" class="highcharts-point"></path><text x="21" style="color:#333333;font-size:12px;font-weight:bold;cursor:pointer;fill:#333333;" text-anchor="start" y="15">Fourseam</text></g><g class="highcharts-legend-item highcharts-line-series highcharts-color-undefined highcharts-series-1" transform="translate(8,17)"><path fill="none" d="M 0 11 L 16 11" class="highcharts-graph" stroke="#4F4F4F" stroke-width="2"></path><path fill="#4F4F4F" d="M 8 8 L 11 11 8 14 5 11 Z" class="highcharts-point"></path><text x="21" y="15" style="color:#333333;font-size:12px;font-weight:bold;cursor:pointer;fill:#333333;" text-anchor="start">Sinker</text></g><g class="highcharts-legend-item highcharts-line-series highcharts-color-undefined highcharts-series-2" transform="translate(8,31)"><path fill="none" d="M 0 11 L 16 11" class="highcharts-graph" stroke="#FFA500" stroke-width="2"></path><path fill="#FFA500" d="M 5 8 L 11 8 11 14 5 14 Z" class="highcharts-point"></path><text x="21" y="15" style="color:#333333;font-size:12px;font-weight:bold;cursor:pointer;fill:#333333;" text-anchor="start">Curveball</text></g><g class="highcharts-legend-item highcharts-line-series highcharts-color-undefined highcharts-series-3" transform="translate(8,45)"><path fill="none" d="M 0 11 L 16 11" class="highcharts-graph" stroke="#FF0000" stroke-width="2"></path><path fill="#FF0000" d="M 8 8 L 11 14 5 14 Z" class="highcharts-point"></path><text x="21" y="15" style="color:#333333;font-size:12px;font-weight:bold;cursor:pointer;fill:#333333;" text-anchor="start">Slider</text></g><g class="highcharts-legend-item highcharts-line-series highcharts-color-undefined highcharts-series-4" transform="translate(8,59)"><path fill="none" d="M 0 11 L 16 11" class="highcharts-graph" stroke="#0c0cff" stroke-width="2"></path><path fill="#0c0cff" d="M 5 8 L 11 8 8 14 Z" class="highcharts-point"></path><text x="21" y="15" style="color:#333333;font-size:12px;font-weight:bold;cursor:pointer;fill:#333333;" text-anchor="start">Changeup</text></g></g></g></g><g class="highcharts-axis-labels highcharts-xaxis-labels "><text x="106.95702260395515" style="color:#666666;cursor:default;font-size:10px;font-family:verdana, sans-serif;fill:#666666;" text-anchor="end" transform="translate(0,0) rotate(-45 106.95702260395515 346)" y="346" opacity="1"><tspan>2013</tspan></text><text x="190.15702260395517" style="color:#666666;cursor:default;font-size:10px;font-family:verdana, sans-serif;fill:#666666;" text-anchor="end" transform="translate(0,0) rotate(-45 190.15702260395517 346)" y="346" opacity="1"><tspan>2014</tspan></text><text x="273.35702260395516" style="color:#666666;cursor:default;font-size:10px;font-family:verdana, sans-serif;fill:#666666;" text-anchor="end" transform="translate(0,0) rotate(-45 273.35702260395516 346)" y="346" opacity="1"><tspan>2015</tspan></text><text x="356.55702260395515" style="color:#666666;cursor:default;font-size:10px;font-family:verdana, sans-serif;fill:#666666;" text-anchor="end" transform="translate(0,0) rotate(-45 356.55702260395515 346)" y="346" opacity="1"><tspan>2016</tspan></text><text x="439.7570226039552" style="color:#666666;cursor:default;font-size:10px;font-family:verdana, sans-serif;fill:#666666;" text-anchor="end" transform="translate(0,0) rotate(-45 439.7570226039552 346)" y="346" opacity="1"><tspan>2017</tspan></text></g><g class="highcharts-axis-labels highcharts-yaxis-labels "><text x="48" style="color:#666666;cursor:default;font-size:11px;fill:#666666;" text-anchor="end" transform="translate(0,0)" y="336" opacity="1"><tspan>0</tspan></text><text x="48" style="color:#666666;cursor:default;font-size:11px;fill:#666666;" text-anchor="end" transform="translate(0,0)" y="268" opacity="1"><tspan>20</tspan></text><text x="48" style="color:#666666;cursor:default;font-size:11px;fill:#666666;" text-anchor="end" transform="translate(0,0)" y="201" opacity="1"><tspan>40</tspan></text><text x="48" style="color:#666666;cursor:default;font-size:11px;fill:#666666;" text-anchor="end" transform="translate(0,0)" y="134" opacity="1"><tspan>60</tspan></text><text x="48" style="color:#666666;cursor:default;font-size:11px;fill:#666666;" text-anchor="end" transform="translate(0,0)" y="67" opacity="1"><tspan>80</tspan></text></g><text x="590" class="highcharts-credits" text-anchor="end" style="cursor:pointer;color:#999999;font-size:9px;fill:#999999;" y="395"><tspan>BrooksBaseball.net | Powered by Pitch Info</tspan></text></svg>