<?xml version="1.0" standalone="no"?><!DOCTYPE svg PUBLIC "-//W3C//DTD SVG 1.1//EN" "http://www.w3.org/Graphics/SVG/1.1/DTD/svg11.dtd"><svg xmlns:xlink="http://www.w3.org/1999/xlink" version="1.1" class="highcharts-root" style="font-family:&quot;lucida grande&quot;, &quot;lucida sans unicode&quot;, arial, helvetica, sans-serif;font-size:12px;" xmlns="http://www.w3.org/2000/svg" width="600" height="400" viewBox="0 0 600 400"><desc>Created with Highcharts 5.0.10</desc><defs><clipPath id="highcharts-y9uux3l-7"><rect x="0" y="0" width="409" height="269" fill="none"></rect></clipPath></defs><rect fill="#ffffff" class="highcharts-background" x="0" y="0" width="600" height="400" rx="0" ry="0"></rect><rect fill="none" class="highcharts-plot-background" x="70" y="62" width="409" height="269"></rect><g class="highcharts-pane-group"></g><g class="highcharts-grid highcharts-xaxis-grid "><path fill="none" class="highcharts-grid-line" d="M 151.5 62 L 151.5 331" opacity="1"></path><path fill="none" class="highcharts-grid-line" d="M 233.5 62 L 233.5 331" opacity="1"></path><path fill="none" class="highcharts-grid-line" d="M 314.5 62 L 314.5 331" opacity="1"></path><path fill="none" class="highcharts-grid-line" d="M 396.5 62 L 396.5 331" opacity="1"></path><path fill="none" class="highcharts-grid-line" d="M 478.5 62 L 478.5 331" opacity="1"></path><path fill="none" class="highcharts-grid-line" d="M 69.5 62 L 69.5 331" opacity="1"></path></g><g class="highcharts-grid highcharts-yaxis-grid "><path fill="none" stroke="#e6e6e6" stroke-width="1" class="highcharts-grid-line" d="M 70 331.5 L 479 331.5" opacity="1"></path><path fill="none" stroke="#e6e6e6" stroke-width="1" class="highcharts-grid-line" d="M 70 264.5 L 479 264.5" opacity="1"></path><path fill="none" stroke="#e6e6e6" stroke-width="1" class="highcharts-grid-line" d="M 70 196.5 L 479 196.5" opacity="1"></path><path fill="none" stroke="#e6e6e6" stroke-width="1" class="highcharts-grid-line" d="M 70 129.5 L 479 129.5" opacity="1"></path><path fill="none" stroke="#e6e6e6" stroke-width="1" class="highcharts-grid-line" d="M 70 61.5 L 479 61.5" opacity="1"></path></g><rect fill="none" class="highcharts-plot-border" x="70" y="62" width="409" height="269"></rect><g class="highcharts-axis highcharts-xaxis "><path fill="none" class="highcharts-tick" stroke="#ccd6eb" stroke-width="1" d="M 151.5 331 L 151.5 341" opacity="1"></path><path fill="none" class="highcharts-tick" stroke="#ccd6eb" stroke-width="1" d="M 233.5 331 L 233.5 341" opacity="1"></path><path fill="none" class="highcharts-tick" stroke="#ccd6eb" stroke-width="1" d="M 314.5 331 L 314.5 341" opacity="1"></path><path fill="none" class="highcharts-tick" stroke="#ccd6eb" stroke-width="1" d="M 396.5 331 L 396.5 341" opacity="1"></path><path fill="none" class="highcharts-tick" stroke="#ccd6eb" stroke-width="1" d="M 478.5 331 L 478.5 341" opacity="1"></path><path fill="none" class="highcharts-tick" stroke="#ccd6eb" stroke-width="1" d="M 69.5 331 L 69.5 341" opacity="1"></path><text x="274.5" text-anchor="middle" transform="translate(0,0)" class="highcharts-axis-title" style="color:#666666;fill:#666666;" y="382.5938440986878">Year</text><path fill="none" class="highcharts-axis-line" stroke="#ccd6eb" stroke-width="1" d="M 70 331.5 L 479 331.5"></path></g><g class="highcharts-axis highcharts-yaxis "><text x="24.125" text-anchor="middle" transform="translate(0,0) rotate(270 24.125 196.5)" class="highcharts-axis-title" style="color:#666666;fill:#666666;" y="196.5"><tspan>Percentage of Pitches</tspan></text><path fill="none" class="highcharts-axis-line" d="M 70 62 L 70 331"></path></g><g class="highcharts-series-group"><g class="highcharts-series highcharts-series-0 highcharts-line-series highcharts-color-undefined " transform="translate(70,62) scale(1 1)" clip-path="url(#highcharts-y9uux3l-7)"><path fill="none" d="M 40.9 26.899731002689975 L 122.7 153.70506294937053 L 204.5 103.37566624333758 L 286.3 150.69229307706925 L 368.1 166.67073329266708" class="highcharts-graph" stroke="#000000" stroke-width="2" stroke-linejoin="round" stroke-linecap="round"></path></g><g class="highcharts-markers highcharts-series-0 highcharts-line-series highcharts-color-undefined " transform="translate(70,62) scale(1 1)" clip-path="none"><path fill="#000000" d="M 43 27 A 3 3 0 1 1 42.999998500000125 26.997000000499998 Z" class="highcharts-point"></path><path fill="#000000" d="M 125 154 A 3 3 0 1 1 124.99999850000013 153.9970000005 Z" class="highcharts-point"></path><path fill="#000000" d="M 207 103 A 3 3 0 1 1 206.99999850000012 102.9970000005 Z" class="highcharts-point"></path><path fill="#000000" d="M 289 151 A 3 3 0 1 1 288.9999985000001 150.9970000005 Z" class="highcharts-point"></path><path fill="#000000" d="M 371 167 A 3 3 0 1 1 370.9999985000001 166.9970000005 Z" class="highcharts-point"></path></g><g class="highcharts-series highcharts-series-1 highcharts-line-series highcharts-color-undefined " transform="translate(70,62) scale(1 1)" clip-path="url(#highcharts-y9uux3l-7)"><path fill="none" d="M 40.9 268.99731002689975 L 122.7 230.55759442405576 L 204.5 243.0390696093039 L 286.3 220.44329556704432 L 368.1 206.42853571464286" class="highcharts-graph" stroke="#4F4F4F" stroke-width="2" stroke-linejoin="round" stroke-linecap="round"></path></g><g class="highcharts-markers highcharts-series-1 highcharts-line-series highcharts-color-undefined " transform="translate(70,62) scale(1 1)" clip-path="none"><path fill="#4F4F4F" d="M 40 266 L 43 269 40 272 37 269 Z" class="highcharts-point"></path><path fill="#4F4F4F" d="M 122 228 L 125 231 122 234 119 231 Z" class="highcharts-point"></path><path fill="#4F4F4F" d="M 204 240 L 207 243 204 246 201 243 Z" class="highcharts-point"></path><path fill="#4F4F4F" d="M 286 217 L 289 220 286 223 283 220 Z" class="highcharts-point"></path><path fill="#4F4F4F" d="M 368 203 L 371 206 368 209 365 206 Z" class="highcharts-point"></path></g><g class="highcharts-series highcharts-series-2 highcharts-line-series highcharts-color-undefined " transform="translate(70,62) scale(1 1)" clip-path="url(#highcharts-y9uux3l-7)"><path fill="none" d="M 40.9 268.99731002689975 L 122.7 230.55759442405576 L 204.5 242.09757902420975 L 286.3 226.6571334286657 L 368.1 237.4170258297417" class="highcharts-graph" stroke="#FFA500" stroke-width="2" stroke-linejoin="round" stroke-linecap="round"></path></g><g class="highcharts-markers highcharts-series-2 highcharts-line-series highcharts-color-undefined " transform="translate(70,62) scale(1 1)" clip-path="none"><path fill="#FFA500" d="M 37 266 L 43 266 43 272 37 272 Z" class="highcharts-point"></path><path fill="#FFA500" d="M 119 228 L 125 228 125 234 119 234 Z" class="highcharts-point"></path><path fill="#FFA500" d="M 201 239 L 207 239 207 245 201 245 Z" class="highcharts-point"></path><path fill="#FFA500" d="M 283 224 L 289 224 289 230 283 230 Z" class="highcharts-point"></path><path fill="#FFA500" d="M 365 234 L 371 234 371 240 365 240 Z" class="highcharts-point"></path></g><g class="highcharts-series highcharts-series-3 highcharts-line-series highcharts-color-undefined " transform="translate(70,62) scale(1 1)" clip-path="url(#highcharts-y9uux3l-7)"><path fill="none" d="M 40.9 268.99731002689975 L 122.7 230.55759442405576 L 204.5 226.92613073869262 L 286.3 228.51321486785133 L 368.1 211.7008829911701" class="highcharts-graph" stroke="#FF0000" stroke-width="2" stroke-linejoin="round" stroke-linecap="round"></path></g><g class="highcharts-markers highcharts-series-3 highcharts-line-series highcharts-color-undefined " transform="translate(70,62) scale(1 1)" clip-path="none"><path fill="#FF0000" d="M 40 266 L 43 272 37 272 Z" class="highcharts-point"></path><path fill="#FF0000" d="M 122 228 L 125 234 119 234 Z" class="highcharts-point"></path><path fill="#FF0000" d="M 204 224 L 207 230 201 230 Z" class="highcharts-point"></path><path fill="#FF0000" d="M 286 226 L 289 232 283 232 Z" class="highcharts-point"></path><path fill="#FF0000" d="M 368 209 L 371 215 365 215 Z" class="highcharts-point"></path></g><g class="highcharts-series highcharts-series-4 highcharts-line-series highcharts-color-undefined " transform="translate(70,62) scale(1 1)" clip-path="url(#highcharts-y9uux3l-7)"><path fill="none" d="M 40.9 242.09757902420975 L 122.7 230.55759442405576 L 204.5 260.5507944920551 L 286.3 249.71020289797102 L 368.1 253.79896201037988" class="highcharts-graph" stroke="#0c0cff" stroke-width="2" stroke-linejoin="round" stroke-linecap="round"></path></g><g class="highcharts-markers highcharts-series-4 highcharts-line-series highcharts-color-undefined " transform="translate(70,62) scale(1 1)" clip-path="none"><path fill="#0c0cff" d="M 37 239 L 43 239 40 245 Z" class="highcharts-point"></path><path fill="#0c0cff" d="M 119 228 L 125 228 122 234 Z" class="highcharts-point"></path><path fill="#0c0cff" d="M 201 258 L 207 258 204 264 Z" class="highcharts-point"></path><path fill="#0c0cff" d="M 283 247 L 289 247 286 253 Z" class="highcharts-point"></path><path fill="#0c0cff" d="M 365 251 L 371 251 368 257 Z" class="highcharts-point"></path></g></g><text x="300" text-anchor="middle" class="highcharts-title" style="color:#333333;font-size:18px;fill:#333333;" y="24"><tspan style="font-weight:bold">Zack Wheeler (New York Mets)</tspan></text><text x="300" text-anchor="middle" class="highcharts-subtitle" style="color:#666666;fill:#666666;" y="46"><tspan>Sorted by Pitch Type | From 03/30/2007 to 05/01/2017 | All Competition Levels</tspan></text><g class="highcharts-legend" transform="translate(491,110)"><rect fill="none" class="highcharts-legend-box" rx="0" ry="0" x="0" y="0" width="99" height="81" visibility="visible"></rect><g><g><g class="highcharts-legend-item highcharts-line-series highcharts-color-undefined highcharts-series-0" transform="translate(8,3)"><path fill="none" d="M 0 11 L 16 11" class="highcharts-graph" stroke="#000000" stroke-width="2"></path><path fill="#000000" d="M 11 11 A 3 3 0 1 1 10.999998500000125 10.997000000499998 Z" class="highcharts-point"></path><text x="21" style="color:#333333;font-size:12px;font-weight:bold;cursor:pointer;fill:#333333;" text-anchor="start" y="15">Fourseam</text></g><g class="highcharts-legend-item highcharts-line-series highcharts-color-undefined highcharts-series-1" transform="translate(8,17)"><path fill="none" d="M 0 11 L 16 11" class="highcharts-graph" stroke="#4F4F4F" stroke-width="2"></path><path fill="#4F4F4F" d="M 8 8 L 11 11 8 14 5 11 Z" class="highcharts-point"></path><text x="21" y="15" style="color:#333333;font-size:12px;font-weight:bold;cursor:pointer;fill:#333333;" text-anchor="start">Sinker</text></g><g class="highcharts-legend-item highcharts-line-series highcharts-color-undefined highcharts-series-2" transform="translate(8,31)"><path fill="none" d="M 0 11 L 16 11" class="highcharts-graph" stroke="#FFA500" stroke-width="2"></path><path fill="#FFA500" d="M 5 8 L 11 8 11 14 5 14 Z" class="highcharts-point"></path><text x="21" y="15" style="color:#333333;font-size:12px;font-weight:bold;cursor:pointer;fill:#333333;" text-anchor="start">Curveball</text></g><g class="highcharts-legend-item highcharts-line-series highcharts-color-undefined highcharts-series-3" transform="translate(8,45)"><path fill="none" d="M 0 11 L 16 11" class="highcharts-graph" stroke="#FF0000" stroke-width="2"></path><path fill="#FF0000" d="M 8 8 L 11 14 5 14 Z" class="highcharts-point"></path><text x="21" y="15" style="color:#333333;font-size:12px;font-weight:bold;cursor:pointer;fill:#333333;" text-anchor="start">Slider</text></g><g class="highcharts-legend-item highcharts-line-series highcharts-color-undefined highcharts-series-4" transform="translate(8,59)"><path fill="none" d="M 0 11 L 16 11" class="highcharts-graph" stroke="#0c0cff" stroke-width="2"></path><path fill="#0c0cff" d="M 5 8 L 11 8 8 14 Z" class="highcharts-point"></path><text x="21" y="15" style="color:#333333;font-size:12px;font-weight:bold;cursor:pointer;fill:#333333;" text-anchor="start">Changeup</text></g></g></g></g><g class="highcharts-axis-labels highcharts-xaxis-labels "><text x="113.25702260395516" style="color:#666666;cursor:default;font-size:10px;font-family:verdana, sans-serif;fill:#666666;" text-anchor="end" transform="translate(0,0) rotate(-45 113.25702260395516 346)" y="346" opacity="1"><tspan>2010</tspan></text><text x="195.05702260395515" style="color:#666666;cursor:default;font-size:10px;font-family:verdana, sans-serif;fill:#666666;" text-anchor="end" transform="translate(0,0) rotate(-45 195.05702260395515 346)" y="346" opacity="1"><tspan>2012</tspan></text><text x="276.85702260395516" style="color:#666666;cursor:default;font-size:10px;font-family:verdana, sans-serif;fill:#666666;" text-anchor="end" transform="translate(0,0) rotate(-45 276.85702260395516 346)" y="346" opacity="1"><tspan>2013</tspan></text><text x="358.65702260395517" style="color:#666666;cursor:default;font-size:10px;font-family:verdana, sans-serif;fill:#666666;" text-anchor="end" transform="translate(0,0) rotate(-45 358.65702260395517 346)" y="346" opacity="1"><tspan>2014</tspan></text><text x="440.4570226039551" style="color:#666666;cursor:default;font-size:10px;font-family:verdana, sans-serif;fill:#666666;" text-anchor="end" transform="translate(0,0) rotate(-45 440.4570226039551 346)" y="346" opacity="1"><tspan>2017</tspan></text></g><g class="highcharts-axis-labels highcharts-yaxis-labels "><text x="55" style="color:#666666;cursor:default;font-size:11px;fill:#666666;" text-anchor="end" transform="translate(0,0)" y="336" opacity="1"><tspan>0</tspan></text><text x="55" style="color:#666666;cursor:default;font-size:11px;fill:#666666;" text-anchor="end" transform="translate(0,0)" y="268" opacity="1"><tspan>25</tspan></text><text x="55" style="color:#666666;cursor:default;font-size:11px;fill:#666666;" text-anchor="end" transform="translate(0,0)" y="201" opacity="1"><tspan>50</tspan></text><text x="55" style="color:#666666;cursor:default;font-size:11px;fill:#666666;" text-anchor="end" transform="translate(0,0)" y="134" opacity="1"><tspan>75</tspan></text><text x="55" style="color:#666666;cursor:default;font-size:11px;fill:#666666;" text-anchor="end" transform="translate(0,0)" y="67" opacity="1"><tspan>100</tspan></text></g><text x="590" class="highcharts-credits" text-anchor="end" style="cursor:pointer;color:#999999;font-size:9px;fill:#999999;" y="395"><tspan>BrooksBaseball.net | Powered by Pitch Info</tspan></text></svg>