<?xml version="1.0" standalone="no"?><!DOCTYPE svg PUBLIC "-//W3C//DTD SVG 1.1//EN" "http://www.w3.org/Graphics/SVG/1.1/DTD/svg11.dtd"><svg xmlns:xlink="http://www.w3.org/1999/xlink" version="1.1" class="highcharts-root" style="font-family:&quot;lucida grande&quot;, &quot;lucida sans unicode&quot;, arial, helvetica, sans-serif;font-size:12px;" xmlns="http://www.w3.org/2000/svg" width="600" height="400" viewBox="0 0 600 400"><desc>Created with Highcharts 5.0.10</desc><defs><clipPath id="highcharts-b9xwbqt-7"><rect x="0" y="0" width="409" height="269" fill="none"></rect></clipPath></defs><rect fill="#ffffff" class="highcharts-background" x="0" y="0" width="600" height="400" rx="0" ry="0"></rect><rect fill="none" class="highcharts-plot-background" x="70" y="62" width="409" height="269"></rect><g class="highcharts-pane-group"></g><g class="highcharts-grid highcharts-xaxis-grid "><path fill="none" class="highcharts-grid-line" d="M 110.5 62 L 110.5 331" opacity="1"></path><path fill="none" class="highcharts-grid-line" d="M 151.5 62 L 151.5 331" opacity="1"></path><path fill="none" class="highcharts-grid-line" d="M 192.5 62 L 192.5 331" opacity="1"></path><path fill="none" class="highcharts-grid-line" d="M 233.5 62 L 233.5 331" opacity="1"></path><path fill="none" class="highcharts-grid-line" d="M 274.5 62 L 274.5 331" opacity="1"></path><path fill="none" class="highcharts-grid-line" d="M 314.5 62 L 314.5 331" opacity="1"></path><path fill="none" class="highcharts-grid-line" d="M 355.5 62 L 355.5 331" opacity="1"></path><path fill="none" class="highcharts-grid-line" d="M 396.5 62 L 396.5 331" opacity="1"></path><path fill="none" class="highcharts-grid-line" d="M 437.5 62 L 437.5 331" opacity="1"></path><path fill="none" class="highcharts-grid-line" d="M 478.5 62 L 478.5 331" opacity="1"></path><path fill="none" class="highcharts-grid-line" d="M 69.5 62 L 69.5 331" opacity="1"></path></g><g class="highcharts-grid highcharts-yaxis-grid "><path fill="none" stroke="#e6e6e6" stroke-width="1" class="highcharts-grid-line" d="M 70 331.5 L 479 331.5" opacity="1"></path><path fill="none" stroke="#e6e6e6" stroke-width="1" class="highcharts-grid-line" d="M 70 277.5 L 479 277.5" opacity="1"></path><path fill="none" stroke="#e6e6e6" stroke-width="1" class="highcharts-grid-line" d="M 70 223.5 L 479 223.5" opacity="1"></path><path fill="none" stroke="#e6e6e6" stroke-width="1" class="highcharts-grid-line" d="M 70 170.5 L 479 170.5" opacity="1"></path><path fill="none" stroke="#e6e6e6" stroke-width="1" class="highcharts-grid-line" d="M 70 116.5 L 479 116.5" opacity="1"></path><path fill="none" stroke="#e6e6e6" stroke-width="1" class="highcharts-grid-line" d="M 70 61.5 L 479 61.5" opacity="1"></path></g><rect fill="none" class="highcharts-plot-border" x="70" y="62" width="409" height="269"></rect><g class="highcharts-axis highcharts-xaxis "><path fill="none" class="highcharts-tick" stroke="#ccd6eb" stroke-width="1" d="M 110.5 331 L 110.5 341" opacity="1"></path><path fill="none" class="highcharts-tick" stroke="#ccd6eb" stroke-width="1" d="M 151.5 331 L 151.5 341" opacity="1"></path><path fill="none" class="highcharts-tick" stroke="#ccd6eb" stroke-width="1" d="M 192.5 331 L 192.5 341" opacity="1"></path><path fill="none" class="highcharts-tick" stroke="#ccd6eb" stroke-width="1" d="M 233.5 331 L 233.5 341" opacity="1"></path><path fill="none" class="highcharts-tick" stroke="#ccd6eb" stroke-width="1" d="M 274.5 331 L 274.5 341" opacity="1"></path><path fill="none" class="highcharts-tick" stroke="#ccd6eb" stroke-width="1" d="M 314.5 331 L 314.5 341" opacity="1"></path><path fill="none" class="highcharts-tick" stroke="#ccd6eb" stroke-width="1" d="M 355.5 331 L 355.5 341" opacity="1"></path><path fill="none" class="highcharts-tick" stroke="#ccd6eb" stroke-width="1" d="M 396.5 331 L 396.5 341" opacity="1"></path><path fill="none" class="highcharts-tick" stroke="#ccd6eb" stroke-width="1" d="M 437.5 331 L 437.5 341" opacity="1"></path><path fill="none" class="highcharts-tick" stroke="#ccd6eb" stroke-width="1" d="M 479.5 331 L 479.5 341" opacity="1"></path><path fill="none" class="highcharts-tick" stroke="#ccd6eb" stroke-width="1" d="M 69.5 331 L 69.5 341" opacity="1"></path><text x="274.5" text-anchor="middle" transform="translate(0,0)" class="highcharts-axis-title" style="color:#666666;fill:#666666;" y="382.5938440986878">Year</text><path fill="none" class="highcharts-axis-line" stroke="#ccd6eb" stroke-width="1" d="M 70 331.5 L 479 331.5"></path></g><g class="highcharts-axis highcharts-yaxis "><text x="24.125" text-anchor="middle" transform="translate(0,0) rotate(270 24.125 196.5)" class="highcharts-axis-title" style="color:#666666;fill:#666666;" y="196.5"><tspan>Percentage of Pitches</tspan></text><path fill="none" class="highcharts-axis-line" d="M 70 62 L 70 331"></path></g><g class="highcharts-series-group"><g class="highcharts-series highcharts-series-0 highcharts-line-series highcharts-color-undefined " transform="translate(70,62) scale(1 1)" clip-path="url(#highcharts-b9xwbqt-7)"><path fill="none" d="M 20.45 268.99731002689975 L 61.35 255.87024129758703 L 102.25 178.130018699813 L 143.15 174.52545474545258 L 184.05 207.55832441675582 L 224.95 206.91273087269127 L 265.85 215.25164748352518 L 306.75 249.0108098919011 L 347.65 254.8480515194848 L 388.55 250.40959590404097" class="highcharts-graph" stroke="#000000" stroke-width="2" stroke-linejoin="round" stroke-linecap="round"></path></g><g class="highcharts-markers highcharts-series-0 highcharts-line-series highcharts-color-undefined " transform="translate(70,62) scale(1 1)" clip-path="none"><path fill="#000000" d="M 23 269 A 3 3 0 1 1 22.999998500000125 268.9970000005 Z" class="highcharts-point"></path><path fill="#000000" d="M 64 256 A 3 3 0 1 1 63.999998500000125 255.9970000005 Z" class="highcharts-point"></path><path fill="#000000" d="M 105 178 A 3 3 0 1 1 104.99999850000013 177.9970000005 Z" class="highcharts-point"></path><path fill="#000000" d="M 146 175 A 3 3 0 1 1 145.99999850000012 174.9970000005 Z" class="highcharts-point"></path><path fill="#000000" d="M 187 208 A 3 3 0 1 1 186.99999850000012 207.9970000005 Z" class="highcharts-point"></path><path fill="#000000" d="M 227 207 A 3 3 0 1 1 226.99999850000012 206.9970000005 Z" class="highcharts-point"></path><path fill="#000000" d="M 268 215 A 3 3 0 1 1 267.9999985000001 214.9970000005 Z" class="highcharts-point"></path><path fill="#000000" d="M 309 249 A 3 3 0 1 1 308.9999985000001 248.9970000005 Z" class="highcharts-point"></path><path fill="#000000" d="M 350 255 A 3 3 0 1 1 349.9999985000001 254.9970000005 Z" class="highcharts-point"></path><path fill="#000000" d="M 391 250 A 3 3 0 1 1 390.9999985000001 249.9970000005 Z" class="highcharts-point"></path></g><g class="highcharts-series highcharts-series-1 highcharts-line-series highcharts-color-undefined " transform="translate(70,62) scale(1 1)" clip-path="url(#highcharts-b9xwbqt-7)"><path fill="none" d="M 20.45 62.084579154208456 L 61.35 124.65335346646535 L 102.25 194.37745622543775 L 143.15 201.7210827891721 L 184.05 169.44140558594415 L 224.95 156.36813631863683 L 265.85 194.88855111448885 L 306.75 151.63378366216338 L 347.65 108.37901620983791 L 388.55 126.48253517464826" class="highcharts-graph" stroke="#4F4F4F" stroke-width="2" stroke-linejoin="round" stroke-linecap="round"></path></g><g class="highcharts-markers highcharts-series-1 highcharts-line-series highcharts-color-undefined " transform="translate(70,62) scale(1 1)" clip-path="none"><path fill="#4F4F4F" d="M 20 59 L 23 62 20 65 17 62 Z" class="highcharts-point"></path><path fill="#4F4F4F" d="M 61 122 L 64 125 61 128 58 125 Z" class="highcharts-point"></path><path fill="#4F4F4F" d="M 102 191 L 105 194 102 197 99 194 Z" class="highcharts-point"></path><path fill="#4F4F4F" d="M 143 199 L 146 202 143 205 140 202 Z" class="highcharts-point"></path><path fill="#4F4F4F" d="M 184 166 L 187 169 184 172 181 169 Z" class="highcharts-point"></path><path fill="#4F4F4F" d="M 224 153 L 227 156 224 159 221 156 Z" class="highcharts-point"></path><path fill="#4F4F4F" d="M 265 192 L 268 195 265 198 262 195 Z" class="highcharts-point"></path><path fill="#4F4F4F" d="M 306 149 L 309 152 306 155 303 152 Z" class="highcharts-point"></path><path fill="#4F4F4F" d="M 347 105 L 350 108 347 111 344 108 Z" class="highcharts-point"></path><path fill="#4F4F4F" d="M 388 123 L 391 126 388 129 385 126 Z" class="highcharts-point"></path></g><g class="highcharts-series highcharts-series-2 highcharts-line-series highcharts-color-undefined " transform="translate(70,62) scale(1 1)" clip-path="url(#highcharts-b9xwbqt-7)"><path fill="none" d="M 20.45 268.99731002689975 L 61.35 262.43377566224336 L 102.25 229.8582014179858 L 143.15 227.49102508974912 L 184.05 226.03843961560383 L 224.95 225.47354526454734 L 265.85 221.19648803511964 L 306.75 228.72841271587285 L 347.65 236.3679363206368 L 388.55 227.67932320676795" class="highcharts-graph" stroke="#FFA500" stroke-width="2" stroke-linejoin="round" stroke-linecap="round"></path></g><g class="highcharts-markers highcharts-series-2 highcharts-line-series highcharts-color-undefined " transform="translate(70,62) scale(1 1)" clip-path="none"><path fill="#FFA500" d="M 17 266 L 23 266 23 272 17 272 Z" class="highcharts-point"></path><path fill="#FFA500" d="M 58 259 L 64 259 64 265 58 265 Z" class="highcharts-point"></path><path fill="#FFA500" d="M 99 227 L 105 227 105 233 99 233 Z" class="highcharts-point"></path><path fill="#FFA500" d="M 140 224 L 146 224 146 230 140 230 Z" class="highcharts-point"></path><path fill="#FFA500" d="M 181 223 L 187 223 187 229 181 229 Z" class="highcharts-point"></path><path fill="#FFA500" d="M 221 222 L 227 222 227 228 221 228 Z" class="highcharts-point"></path><path fill="#FFA500" d="M 262 218 L 268 218 268 224 262 224 Z" class="highcharts-point"></path><path fill="#FFA500" d="M 303 226 L 309 226 309 232 303 232 Z" class="highcharts-point"></path><path fill="#FFA500" d="M 344 233 L 350 233 350 239 344 239 Z" class="highcharts-point"></path><path fill="#FFA500" d="M 385 225 L 391 225 391 231 385 231 Z" class="highcharts-point"></path></g><g class="highcharts-series highcharts-series-3 highcharts-line-series highcharts-color-undefined " transform="translate(70,62) scale(1 1)" clip-path="url(#highcharts-b9xwbqt-7)"><path fill="none" d="M 20.45 227.62552374476255 L 61.35 206.67063329366707 L 102.25 231.60668393316067 L 143.15 223.61746382536174 L 184.05 225.76944230557694 L 224.95 228.0290197098029 L 265.85 190.7459925400746 L 306.75 189.58930410695893 L 347.65 218.58721412785872 L 388.55 225.63494365056349" class="highcharts-graph" stroke="#FF0000" stroke-width="2" stroke-linejoin="round" stroke-linecap="round"></path></g><g class="highcharts-markers highcharts-series-3 highcharts-line-series highcharts-color-undefined " transform="translate(70,62) scale(1 1)" clip-path="none"><path fill="#FF0000" d="M 20 225 L 23 231 17 231 Z" class="highcharts-point"></path><path fill="#FF0000" d="M 61 204 L 64 210 58 210 Z" class="highcharts-point"></path><path fill="#FF0000" d="M 102 229 L 105 235 99 235 Z" class="highcharts-point"></path><path fill="#FF0000" d="M 143 221 L 146 227 140 227 Z" class="highcharts-point"></path><path fill="#FF0000" d="M 184 223 L 187 229 181 229 Z" class="highcharts-point"></path><path fill="#FF0000" d="M 224 225 L 227 231 221 231 Z" class="highcharts-point"></path><path fill="#FF0000" d="M 265 188 L 268 194 262 194 Z" class="highcharts-point"></path><path fill="#FF0000" d="M 306 187 L 309 193 303 193 Z" class="highcharts-point"></path><path fill="#FF0000" d="M 347 216 L 350 222 344 222 Z" class="highcharts-point"></path><path fill="#FF0000" d="M 388 223 L 391 229 385 229 Z" class="highcharts-point"></path></g><g class="highcharts-series highcharts-series-4 highcharts-line-series highcharts-color-undefined " transform="translate(70,62) scale(1 1)" clip-path="url(#highcharts-b9xwbqt-7)"><path fill="none" d="M 20.45 248.31141688583114 L 61.35 226.36123638763613 L 102.25 242.0168798312017 L 143.15 248.63421365786343 L 184.05 247.18162818371817 L 224.95 259.1789082109179 L 265.85 253.87966120338797 L 306.75 257.0000299997 L 347.65 257.8339216607834 L 388.55 245.7559424405756" class="highcharts-graph" stroke="#0c0cff" stroke-width="2" stroke-linejoin="round" stroke-linecap="round"></path></g><g class="highcharts-markers highcharts-series-4 highcharts-line-series highcharts-color-undefined " transform="translate(70,62) scale(1 1)" clip-path="none"><path fill="#0c0cff" d="M 17 245 L 23 245 20 251 Z" class="highcharts-point"></path><path fill="#0c0cff" d="M 58 223 L 64 223 61 229 Z" class="highcharts-point"></path><path fill="#0c0cff" d="M 99 239 L 105 239 102 245 Z" class="highcharts-point"></path><path fill="#0c0cff" d="M 140 246 L 146 246 143 252 Z" class="highcharts-point"></path><path fill="#0c0cff" d="M 181 244 L 187 244 184 250 Z" class="highcharts-point"></path><path fill="#0c0cff" d="M 221 256 L 227 256 224 262 Z" class="highcharts-point"></path><path fill="#0c0cff" d="M 262 251 L 268 251 265 257 Z" class="highcharts-point"></path><path fill="#0c0cff" d="M 303 254 L 309 254 306 260 Z" class="highcharts-point"></path><path fill="#0c0cff" d="M 344 255 L 350 255 347 261 Z" class="highcharts-point"></path><path fill="#0c0cff" d="M 385 243 L 391 243 388 249 Z" class="highcharts-point"></path></g></g><text x="300" text-anchor="middle" class="highcharts-title" style="color:#333333;font-size:18px;fill:#333333;" y="24"><tspan style="font-weight:bold">Jake Arrieta (Chicago Cubs)</tspan></text><text x="300" text-anchor="middle" class="highcharts-subtitle" style="color:#666666;fill:#666666;" y="46"><tspan>Sorted by Pitch Type | From 03/30/2007 to 05/01/2017 | All Competition Levels</tspan></text><g class="highcharts-legend" transform="translate(491,110)"><rect fill="none" class="highcharts-legend-box" rx="0" ry="0" x="0" y="0" width="99" height="81" visibility="visible"></rect><g><g><g class="highcharts-legend-item highcharts-line-series highcharts-color-undefined highcharts-series-0" transform="translate(8,3)"><path fill="none" d="M 0 11 L 16 11" class="highcharts-graph" stroke="#000000" stroke-width="2"></path><path fill="#000000" d="M 11 11 A 3 3 0 1 1 10.999998500000125 10.997000000499998 Z" class="highcharts-point"></path><text x="21" style="color:#333333;font-size:12px;font-weight:bold;cursor:pointer;fill:#333333;" text-anchor="start" y="15">Fourseam</text></g><g class="highcharts-legend-item highcharts-line-series highcharts-color-undefined highcharts-series-1" transform="translate(8,17)"><path fill="none" d="M 0 11 L 16 11" class="highcharts-graph" stroke="#4F4F4F" stroke-width="2"></path><path fill="#4F4F4F" d="M 8 8 L 11 11 8 14 5 11 Z" class="highcharts-point"></path><text x="21" y="15" style="color:#333333;font-size:12px;font-weight:bold;cursor:pointer;fill:#333333;" text-anchor="start">Sinker</text></g><g class="highcharts-legend-item highcharts-line-series highcharts-color-undefined highcharts-series-2" transform="translate(8,31)"><path fill="none" d="M 0 11 L 16 11" class="highcharts-graph" stroke="#FFA500" stroke-width="2"></path><path fill="#FFA500" d="M 5 8 L 11 8 11 14 5 14 Z" class="highcharts-point"></path><text x="21" y="15" style="color:#333333;font-size:12px;font-weight:bold;cursor:pointer;fill:#333333;" text-anchor="start">Curveball</text></g><g class="highcharts-legend-item highcharts-line-series highcharts-color-undefined highcharts-series-3" transform="translate(8,45)"><path fill="none" d="M 0 11 L 16 11" class="highcharts-graph" stroke="#FF0000" stroke-width="2"></path><path fill="#FF0000" d="M 8 8 L 11 14 5 14 Z" class="highcharts-point"></path><text x="21" y="15" style="color:#333333;font-size:12px;font-weight:bold;cursor:pointer;fill:#333333;" text-anchor="start">Slider</text></g><g class="highcharts-legend-item highcharts-line-series highcharts-color-undefined highcharts-series-4" transform="translate(8,59)"><path fill="none" d="M 0 11 L 16 11" class="highcharts-graph" stroke="#0c0cff" stroke-width="2"></path><path fill="#0c0cff" d="M 5 8 L 11 8 8 14 Z" class="highcharts-point"></path><text x="21" y="15" style="color:#333333;font-size:12px;font-weight:bold;cursor:pointer;fill:#333333;" text-anchor="start">Changeup</text></g></g></g></g><g class="highcharts-axis-labels highcharts-xaxis-labels "><text x="92.80702260395516" style="color:#666666;cursor:default;font-size:10px;font-family:verdana, sans-serif;fill:#666666;" text-anchor="end" transform="translate(0,0) rotate(-45 92.80702260395516 346)" y="346" opacity="1"><tspan>2008</tspan></text><text x="133.70702260395518" style="color:#666666;cursor:default;font-size:10px;font-family:verdana, sans-serif;fill:#666666;" text-anchor="end" transform="translate(0,0) rotate(-45 133.70702260395518 346)" y="346" opacity="1"><tspan>2009</tspan></text><text x="174.60702260395516" style="color:#666666;cursor:default;font-size:10px;font-family:verdana, sans-serif;fill:#666666;" text-anchor="end" transform="translate(0,0) rotate(-45 174.60702260395516 346)" y="346" opacity="1"><tspan>2010</tspan></text><text x="215.50702260395516" style="color:#666666;cursor:default;font-size:10px;font-family:verdana, sans-serif;fill:#666666;" text-anchor="end" transform="translate(0,0) rotate(-45 215.50702260395516 346)" y="346" opacity="1"><tspan>2011</tspan></text><text x="256.40702260395517" style="color:#666666;cursor:default;font-size:10px;font-family:verdana, sans-serif;fill:#666666;" text-anchor="end" transform="translate(0,0) rotate(-45 256.40702260395517 346)" y="346" opacity="1"><tspan>2012</tspan></text><text x="297.30702260395515" style="color:#666666;cursor:default;font-size:10px;font-family:verdana, sans-serif;fill:#666666;" text-anchor="end" transform="translate(0,0) rotate(-45 297.30702260395515 346)" y="346" opacity="1"><tspan>2013</tspan></text><text x="338.2070226039551" style="color:#666666;cursor:default;font-size:10px;font-family:verdana, sans-serif;fill:#666666;" text-anchor="end" transform="translate(0,0) rotate(-45 338.2070226039551 346)" y="346" opacity="1"><tspan>2014</tspan></text><text x="379.10702260395516" style="color:#666666;cursor:default;font-size:10px;font-family:verdana, sans-serif;fill:#666666;" text-anchor="end" transform="translate(0,0) rotate(-45 379.10702260395516 346)" y="346" opacity="1"><tspan>2015</tspan></text><text x="420.00702260395514" style="color:#666666;cursor:default;font-size:10px;font-family:verdana, sans-serif;fill:#666666;" text-anchor="end" transform="translate(0,0) rotate(-45 420.00702260395514 346)" y="346" opacity="1"><tspan>2016</tspan></text><text x="460.90702260395517" style="color:#666666;cursor:default;font-size:10px;font-family:verdana, sans-serif;fill:#666666;" text-anchor="end" transform="translate(0,0) rotate(-45 460.90702260395517 346)" y="346" opacity="1"><tspan>2017</tspan></text></g><g class="highcharts-axis-labels highcharts-yaxis-labels "><text x="55" style="color:#666666;cursor:default;font-size:11px;fill:#666666;" text-anchor="end" transform="translate(0,0)" y="336" opacity="1"><tspan>0</tspan></text><text x="55" style="color:#666666;cursor:default;font-size:11px;fill:#666666;" text-anchor="end" transform="translate(0,0)" y="282" opacity="1"><tspan>20</tspan></text><text x="55" style="color:#666666;cursor:default;font-size:11px;fill:#666666;" text-anchor="end" transform="translate(0,0)" y="228" opacity="1"><tspan>40</tspan></text><text x="55" style="color:#666666;cursor:default;font-size:11px;fill:#666666;" text-anchor="end" transform="translate(0,0)" y="174" opacity="1"><tspan>60</tspan></text><text x="55" style="color:#666666;cursor:default;font-size:11px;fill:#666666;" text-anchor="end" transform="translate(0,0)" y="120" opacity="1"><tspan>80</tspan></text><text x="55" style="color:#666666;cursor:default;font-size:11px;fill:#666666;" text-anchor="end" transform="translate(0,0)" y="67" opacity="1"><tspan>100</tspan></text></g><text x="590" class="highcharts-credits" text-anchor="end" style="cursor:pointer;color:#999999;font-size:9px;fill:#999999;" y="395"><tspan>BrooksBaseball.net | Powered by Pitch Info</tspan></text></svg>