<?xml version="1.0" standalone="no"?><!DOCTYPE svg PUBLIC "-//W3C//DTD SVG 1.1//EN" "http://www.w3.org/Graphics/SVG/1.1/DTD/svg11.dtd"><svg xmlns:xlink="http://www.w3.org/1999/xlink" version="1.1" class="highcharts-root" style="font-family:&quot;lucida grande&quot;, &quot;lucida sans unicode&quot;, arial, helvetica, sans-serif;font-size:12px;" xmlns="http://www.w3.org/2000/svg" width="600" height="400" viewBox="0 0 600 400"><desc>Created with Highcharts 5.0.10</desc><defs><clipPath id="highcharts-o7vm4kh-7"><rect x="0" y="0" width="416" height="266" fill="none"></rect></clipPath></defs><rect fill="#ffffff" class="highcharts-background" x="0" y="0" width="600" height="400" rx="0" ry="0"></rect><rect fill="none" class="highcharts-plot-background" x="63" y="62" width="416" height="266"></rect><g class="highcharts-pane-group"></g><g class="highcharts-grid highcharts-xaxis-grid "><path fill="none" class="highcharts-grid-line" d="M 104.5 62 L 104.5 328" opacity="1"></path><path fill="none" class="highcharts-grid-line" d="M 145.5 62 L 145.5 328" opacity="1"></path><path fill="none" class="highcharts-grid-line" d="M 187.5 62 L 187.5 328" opacity="1"></path><path fill="none" class="highcharts-grid-line" d="M 228.5 62 L 228.5 328" opacity="1"></path><path fill="none" class="highcharts-grid-line" d="M 270.5 62 L 270.5 328" opacity="1"></path><path fill="none" class="highcharts-grid-line" d="M 312.5 62 L 312.5 328" opacity="1"></path><path fill="none" class="highcharts-grid-line" d="M 353.5 62 L 353.5 328" opacity="1"></path><path fill="none" class="highcharts-grid-line" d="M 395.5 62 L 395.5 328" opacity="1"></path><path fill="none" class="highcharts-grid-line" d="M 436.5 62 L 436.5 328" opacity="1"></path><path fill="none" class="highcharts-grid-line" d="M 478.5 62 L 478.5 328" opacity="1"></path><path fill="none" class="highcharts-grid-line" d="M 62.5 62 L 62.5 328" opacity="1"></path></g><g class="highcharts-grid highcharts-yaxis-grid "><path fill="none" stroke="#e6e6e6" stroke-width="1" class="highcharts-grid-line" d="M 63 328.5 L 479 328.5" opacity="1"></path><path fill="none" stroke="#e6e6e6" stroke-width="1" class="highcharts-grid-line" d="M 63 261.5 L 479 261.5" opacity="1"></path><path fill="none" stroke="#e6e6e6" stroke-width="1" class="highcharts-grid-line" d="M 63 195.5 L 479 195.5" opacity="1"></path><path fill="none" stroke="#e6e6e6" stroke-width="1" class="highcharts-grid-line" d="M 63 128.5 L 479 128.5" opacity="1"></path><path fill="none" stroke="#e6e6e6" stroke-width="1" class="highcharts-grid-line" d="M 63 61.5 L 479 61.5" opacity="1"></path></g><rect fill="none" class="highcharts-plot-border" x="63" y="62" width="416" height="266"></rect><g class="highcharts-axis highcharts-xaxis "><path fill="none" class="highcharts-tick" stroke="#ccd6eb" stroke-width="1" d="M 104.5 328 L 104.5 338" opacity="1"></path><path fill="none" class="highcharts-tick" stroke="#ccd6eb" stroke-width="1" d="M 145.5 328 L 145.5 338" opacity="1"></path><path fill="none" class="highcharts-tick" stroke="#ccd6eb" stroke-width="1" d="M 187.5 328 L 187.5 338" opacity="1"></path><path fill="none" class="highcharts-tick" stroke="#ccd6eb" stroke-width="1" d="M 228.5 328 L 228.5 338" opacity="1"></path><path fill="none" class="highcharts-tick" stroke="#ccd6eb" stroke-width="1" d="M 270.5 328 L 270.5 338" opacity="1"></path><path fill="none" class="highcharts-tick" stroke="#ccd6eb" stroke-width="1" d="M 312.5 328 L 312.5 338" opacity="1"></path><path fill="none" class="highcharts-tick" stroke="#ccd6eb" stroke-width="1" d="M 353.5 328 L 353.5 338" opacity="1"></path><path fill="none" class="highcharts-tick" stroke="#ccd6eb" stroke-width="1" d="M 395.5 328 L 395.5 338" opacity="1"></path><path fill="none" class="highcharts-tick" stroke="#ccd6eb" stroke-width="1" d="M 436.5 328 L 436.5 338" opacity="1"></path><path fill="none" class="highcharts-tick" stroke="#ccd6eb" stroke-width="1" d="M 479.5 328 L 479.5 338" opacity="1"></path><path fill="none" class="highcharts-tick" stroke="#ccd6eb" stroke-width="1" d="M 62.5 328 L 62.5 338" opacity="1"></path><text x="271" text-anchor="middle" transform="translate(0,0)" class="highcharts-axis-title" style="color:#666666;fill:#666666;" y="382.80897024439537">Month</text><path fill="none" class="highcharts-axis-line" stroke="#ccd6eb" stroke-width="1" d="M 63 328.5 L 479 328.5"></path></g><g class="highcharts-axis highcharts-yaxis "><text x="24.078125" text-anchor="middle" transform="translate(0,0) rotate(270 24.078125 195)" class="highcharts-axis-title" style="color:#666666;fill:#666666;" y="195"><tspan>Percentage of Pitches</tspan></text><path fill="none" class="highcharts-axis-line" d="M 63 62 L 63 328"></path></g><g class="highcharts-series-group"><g class="highcharts-series highcharts-series-0 highcharts-line-series highcharts-color-undefined " transform="translate(63,62) scale(1 1)" clip-path="url(#highcharts-o7vm4kh-7)"><path fill="none" d="M 20.8 262.9709628629642 L 62.4 265.99667504156196 L 104 265.99667504156196 L 145.6 265.99667504156196 M 228.8 265.99667504156196 L 270.4 220.64424194697565 L 312 128.27689653879327 L 353.6 265.99667504156196 L 395.2 265.99667504156196" class="highcharts-graph" stroke="#000000" stroke-width="2" stroke-linejoin="round" stroke-linecap="round"></path></g><g class="highcharts-markers highcharts-series-0 highcharts-line-series highcharts-color-undefined " transform="translate(63,62) scale(1 1)" clip-path="none"><path fill="#000000" d="M 23 263 A 3 3 0 1 1 22.999998500000125 262.9970000005 Z" class="highcharts-point"></path><path fill="#000000" d="M 65 266 A 3 3 0 1 1 64.99999850000013 265.9970000005 Z" class="highcharts-point"></path><path fill="#000000" d="M 107 266 A 3 3 0 1 1 106.99999850000013 265.9970000005 Z" class="highcharts-point"></path><path fill="#000000" d="M 148 266 A 3 3 0 1 1 147.99999850000012 265.9970000005 Z" class="highcharts-point"></path><path fill="#000000" d="M 231 266 A 3 3 0 1 1 230.99999850000012 265.9970000005 Z" class="highcharts-point"></path><path fill="#000000" d="M 273 221 A 3 3 0 1 1 272.9999985000001 220.9970000005 Z" class="highcharts-point"></path><path fill="#000000" d="M 315 128 A 3 3 0 1 1 314.9999985000001 127.9970000005 Z" class="highcharts-point"></path><path fill="#000000" d="M 356 266 A 3 3 0 1 1 355.9999985000001 265.9970000005 Z" class="highcharts-point"></path><path fill="#000000" d="M 398 266 A 3 3 0 1 1 397.9999985000001 265.9970000005 Z" class="highcharts-point"></path></g><g class="highcharts-series highcharts-series-1 highcharts-line-series highcharts-color-undefined " transform="translate(63,62) scale(1 1)" clip-path="url(#highcharts-o7vm4kh-7)"><path fill="none" d="M 20.8 63.47345658179276 L 62.4 15.793552580592717 L 104 38.270271621604735 L 145.6 43.623454706816176 M 228.8 61.51173110336123 L 270.4 104.56994287571408 L 312 192.94733815827303 L 353.6 65.83417707278659 L 395.2 67.76265296683792" class="highcharts-graph" stroke="#4F4F4F" stroke-width="2" stroke-linejoin="round" stroke-linecap="round"></path></g><g class="highcharts-markers highcharts-series-1 highcharts-line-series highcharts-color-undefined " transform="translate(63,62) scale(1 1)" clip-path="none"><path fill="#4F4F4F" d="M 20 60 L 23 63 20 66 17 63 Z" class="highcharts-point"></path><path fill="#4F4F4F" d="M 62 13 L 65 16 62 19 59 16 Z" class="highcharts-point"></path><path fill="#4F4F4F" d="M 104 35 L 107 38 104 41 101 38 Z" class="highcharts-point"></path><path fill="#4F4F4F" d="M 145 41 L 148 44 145 47 142 44 Z" class="highcharts-point"></path><path fill="#4F4F4F" d="M 228 59 L 231 62 228 65 225 62 Z" class="highcharts-point"></path><path fill="#4F4F4F" d="M 270 102 L 273 105 270 108 267 105 Z" class="highcharts-point"></path><path fill="#4F4F4F" d="M 312 190 L 315 193 312 196 309 193 Z" class="highcharts-point"></path><path fill="#4F4F4F" d="M 353 63 L 356 66 353 69 350 66 Z" class="highcharts-point"></path><path fill="#4F4F4F" d="M 395 65 L 398 68 395 71 392 68 Z" class="highcharts-point"></path></g><g class="highcharts-series highcharts-series-2 highcharts-line-series highcharts-color-undefined " transform="translate(63,62) scale(1 1)" clip-path="url(#highcharts-o7vm4kh-7)"><path fill="none" d="M 20.8 184.36894538818262 L 62.4 203.45420682241473 L 104 204.05269934125823 L 145.6 206.71266609167384 M 228.8 219.0150123123461 L 270.4 220.64424194697565 L 312 214.52631842101974 L 353.6 206.08092398845014 L 395.2 193.61232984587693" class="highcharts-graph" stroke="#FFA500" stroke-width="2" stroke-linejoin="round" stroke-linecap="round"></path></g><g class="highcharts-markers highcharts-series-2 highcharts-line-series highcharts-color-undefined " transform="translate(63,62) scale(1 1)" clip-path="none"><path fill="#FFA500" d="M 17 181 L 23 181 23 187 17 187 Z" class="highcharts-point"></path><path fill="#FFA500" d="M 59 200 L 65 200 65 206 59 206 Z" class="highcharts-point"></path><path fill="#FFA500" d="M 101 201 L 107 201 107 207 101 207 Z" class="highcharts-point"></path><path fill="#FFA500" d="M 142 204 L 148 204 148 210 142 210 Z" class="highcharts-point"></path><path fill="#FFA500" d="M 225 216 L 231 216 231 222 225 222 Z" class="highcharts-point"></path><path fill="#FFA500" d="M 267 218 L 273 218 273 224 267 224 Z" class="highcharts-point"></path><path fill="#FFA500" d="M 309 212 L 315 212 315 218 309 218 Z" class="highcharts-point"></path><path fill="#FFA500" d="M 350 203 L 356 203 356 209 350 209 Z" class="highcharts-point"></path><path fill="#FFA500" d="M 392 191 L 398 191 398 197 392 197 Z" class="highcharts-point"></path></g><g class="highcharts-series highcharts-series-3 highcharts-line-series highcharts-color-undefined " transform="translate(63,62) scale(1 1)" clip-path="url(#highcharts-o7vm4kh-7)"><path fill="none" d="M 20.8 265.99667504156196 L 62.4 265.99667504156196 L 104 255.9885501431232 L 145.6 265.99667504156196 M 228.8 213.49558130523369 L 270.4 219.28100898738765 L 312 256.9527880901489 L 353.6 234.4095698803765 L 395.2 227.19441006987412" class="highcharts-graph" stroke="#FF0000" stroke-width="2" stroke-linejoin="round" stroke-linecap="round"></path></g><g class="highcharts-markers highcharts-series-3 highcharts-line-series highcharts-color-undefined " transform="translate(63,62) scale(1 1)" clip-path="none"><path fill="#FF0000" d="M 20 263 L 23 269 17 269 Z" class="highcharts-point"></path><path fill="#FF0000" d="M 62 263 L 65 269 59 269 Z" class="highcharts-point"></path><path fill="#FF0000" d="M 104 253 L 107 259 101 259 Z" class="highcharts-point"></path><path fill="#FF0000" d="M 145 263 L 148 269 142 269 Z" class="highcharts-point"></path><path fill="#FF0000" d="M 228 210 L 231 216 225 216 Z" class="highcharts-point"></path><path fill="#FF0000" d="M 270 216 L 273 222 267 222 Z" class="highcharts-point"></path><path fill="#FF0000" d="M 312 254 L 315 260 309 260 Z" class="highcharts-point"></path><path fill="#FF0000" d="M 353 231 L 356 237 350 237 Z" class="highcharts-point"></path><path fill="#FF0000" d="M 395 224 L 398 230 392 230 Z" class="highcharts-point"></path></g><g class="highcharts-series highcharts-series-4 highcharts-line-series highcharts-color-undefined " transform="translate(63,62) scale(1 1)" clip-path="url(#highcharts-o7vm4kh-7)"><path fill="none" d="M 20.8 220.64424194697565 L 62.4 246.246421919726 L 104 233.21258484268947 L 145.6 215.15806052424347 M 228.8 237.43528205897428 L 270.4 232.3480956488044 L 312 204.78419019762254 L 353.6 225.16618542268222 L 395.2 242.92146348170647" class="highcharts-graph" stroke="#0c0cff" stroke-width="2" stroke-linejoin="round" stroke-linecap="round"></path></g><g class="highcharts-markers highcharts-series-4 highcharts-line-series highcharts-color-undefined " transform="translate(63,62) scale(1 1)" clip-path="none"><path fill="#0c0cff" d="M 17 218 L 23 218 20 224 Z" class="highcharts-point"></path><path fill="#0c0cff" d="M 59 243 L 65 243 62 249 Z" class="highcharts-point"></path><path fill="#0c0cff" d="M 101 230 L 107 230 104 236 Z" class="highcharts-point"></path><path fill="#0c0cff" d="M 142 212 L 148 212 145 218 Z" class="highcharts-point"></path><path fill="#0c0cff" d="M 225 234 L 231 234 228 240 Z" class="highcharts-point"></path><path fill="#0c0cff" d="M 267 229 L 273 229 270 235 Z" class="highcharts-point"></path><path fill="#0c0cff" d="M 309 202 L 315 202 312 208 Z" class="highcharts-point"></path><path fill="#0c0cff" d="M 350 222 L 356 222 353 228 Z" class="highcharts-point"></path><path fill="#0c0cff" d="M 392 240 L 398 240 395 246 Z" class="highcharts-point"></path></g></g><text x="300" text-anchor="middle" class="highcharts-title" style="color:#333333;font-size:18px;fill:#333333;" y="24"><tspan style="font-weight:bold">Steven Matz (New York Mets)</tspan></text><text x="300" text-anchor="middle" class="highcharts-subtitle" style="color:#666666;fill:#666666;" y="46"><tspan>Sorted by Pitch Type | From 03/30/2007 to 05/01/2017 | All Competition Levels</tspan></text><g class="highcharts-legend" transform="translate(491,110)"><rect fill="none" class="highcharts-legend-box" rx="0" ry="0" x="0" y="0" width="99" height="81" visibility="visible"></rect><g><g><g class="highcharts-legend-item highcharts-line-series highcharts-color-undefined highcharts-series-0" transform="translate(8,3)"><path fill="none" d="M 0 11 L 16 11" class="highcharts-graph" stroke="#000000" stroke-width="2"></path><path fill="#000000" d="M 11 11 A 3 3 0 1 1 10.999998500000125 10.997000000499998 Z" class="highcharts-point"></path><text x="21" style="color:#333333;font-size:12px;font-weight:bold;cursor:pointer;fill:#333333;" text-anchor="start" y="15">Fourseam</text></g><g class="highcharts-legend-item highcharts-line-series highcharts-color-undefined highcharts-series-1" transform="translate(8,17)"><path fill="none" d="M 0 11 L 16 11" class="highcharts-graph" stroke="#4F4F4F" stroke-width="2"></path><path fill="#4F4F4F" d="M 8 8 L 11 11 8 14 5 11 Z" class="highcharts-point"></path><text x="21" y="15" style="color:#333333;font-size:12px;font-weight:bold;cursor:pointer;fill:#333333;" text-anchor="start">Sinker</text></g><g class="highcharts-legend-item highcharts-line-series highcharts-color-undefined highcharts-series-2" transform="translate(8,31)"><path fill="none" d="M 0 11 L 16 11" class="highcharts-graph" stroke="#FFA500" stroke-width="2"></path><path fill="#FFA500" d="M 5 8 L 11 8 11 14 5 14 Z" class="highcharts-point"></path><text x="21" y="15" style="color:#333333;font-size:12px;font-weight:bold;cursor:pointer;fill:#333333;" text-anchor="start">Curveball</text></g><g class="highcharts-legend-item highcharts-line-series highcharts-color-undefined highcharts-series-3" transform="translate(8,45)"><path fill="none" d="M 0 11 L 16 11" class="highcharts-graph" stroke="#FF0000" stroke-width="2"></path><path fill="#FF0000" d="M 8 8 L 11 14 5 14 Z" class="highcharts-point"></path><text x="21" y="15" style="color:#333333;font-size:12px;font-weight:bold;cursor:pointer;fill:#333333;" text-anchor="start">Slider</text></g><g class="highcharts-legend-item highcharts-line-series highcharts-color-undefined highcharts-series-4" transform="translate(8,59)"><path fill="none" d="M 0 11 L 16 11" class="highcharts-graph" stroke="#0c0cff" stroke-width="2"></path><path fill="#0c0cff" d="M 5 8 L 11 8 8 14 Z" class="highcharts-point"></path><text x="21" y="15" style="color:#333333;font-size:12px;font-weight:bold;cursor:pointer;fill:#333333;" text-anchor="start">Changeup</text></g></g></g></g><g class="highcharts-axis-labels highcharts-xaxis-labels "><text x="86.15702260395516" style="color:#666666;cursor:default;font-size:10px;font-family:verdana, sans-serif;fill:#666666;" text-anchor="end" transform="translate(0,0) rotate(-45 86.15702260395516 343)" y="343" opacity="1"><tspan>6/15</tspan></text><text x="127.75702260395515" style="color:#666666;cursor:default;font-size:10px;font-family:verdana, sans-serif;fill:#666666;" text-anchor="end" transform="translate(0,0) rotate(-45 127.75702260395515 343)" y="343" opacity="1"><tspan>7/15</tspan></text><text x="169.35702260395516" style="color:#666666;cursor:default;font-size:10px;font-family:verdana, sans-serif;fill:#666666;" text-anchor="end" transform="translate(0,0) rotate(-45 169.35702260395516 343)" y="343" opacity="1"><tspan>9/15</tspan></text><text x="210.95702260395515" style="color:#666666;cursor:default;font-size:10px;font-family:verdana, sans-serif;fill:#666666;" text-anchor="end" transform="translate(0,0) rotate(-45 210.95702260395515 343)" y="343" opacity="1"><tspan>10/15</tspan></text><text x="252.55702260395515" style="color:#666666;cursor:default;font-size:10px;font-family:verdana, sans-serif;fill:#666666;" text-anchor="end" transform="translate(0,0) rotate(-45 252.55702260395515 343)" y="343" opacity="1"></text><text x="294.15702260395517" style="color:#666666;cursor:default;font-size:10px;font-family:verdana, sans-serif;fill:#666666;" text-anchor="end" transform="translate(0,0) rotate(-45 294.15702260395517 343)" y="343" opacity="1"><tspan>4/16</tspan></text><text x="335.7570226039552" style="color:#666666;cursor:default;font-size:10px;font-family:verdana, sans-serif;fill:#666666;" text-anchor="end" transform="translate(0,0) rotate(-45 335.7570226039552 343)" y="343" opacity="1"><tspan>5/16</tspan></text><text x="377.35702260395516" style="color:#666666;cursor:default;font-size:10px;font-family:verdana, sans-serif;fill:#666666;" text-anchor="end" transform="translate(0,0) rotate(-45 377.35702260395516 343)" y="343" opacity="1"><tspan>6/16</tspan></text><text x="418.9570226039552" style="color:#666666;cursor:default;font-size:10px;font-family:verdana, sans-serif;fill:#666666;" text-anchor="end" transform="translate(0,0) rotate(-45 418.9570226039552 343)" y="343" opacity="1"><tspan>7/16</tspan></text><text x="460.55702260395515" style="color:#666666;cursor:default;font-size:10px;font-family:verdana, sans-serif;fill:#666666;" text-anchor="end" transform="translate(0,0) rotate(-45 460.55702260395515 343)" y="343" opacity="1"><tspan>8/16</tspan></text></g><g class="highcharts-axis-labels highcharts-yaxis-labels "><text x="48" style="color:#666666;cursor:default;font-size:11px;fill:#666666;" text-anchor="end" transform="translate(0,0)" y="333" opacity="1"><tspan>0</tspan></text><text x="48" style="color:#666666;cursor:default;font-size:11px;fill:#666666;" text-anchor="end" transform="translate(0,0)" y="266" opacity="1"><tspan>20</tspan></text><text x="48" style="color:#666666;cursor:default;font-size:11px;fill:#666666;" text-anchor="end" transform="translate(0,0)" y="200" opacity="1"><tspan>40</tspan></text><text x="48" style="color:#666666;cursor:default;font-size:11px;fill:#666666;" text-anchor="end" transform="translate(0,0)" y="133" opacity="1"><tspan>60</tspan></text><text x="48" style="color:#666666;cursor:default;font-size:11px;fill:#666666;" text-anchor="end" transform="translate(0,0)" y="67" opacity="1"><tspan>80</tspan></text></g><text x="590" class="highcharts-credits" text-anchor="end" style="cursor:pointer;color:#999999;font-size:9px;fill:#999999;" y="395"><tspan>BrooksBaseball.net | Powered by Pitch Info</tspan></text></svg>